<svg width="47" height="30" viewBox="0 0 47 30" fill="none" xmlns="http://www.w3.org/2000/svg">
<g clip-path="url(#clip0_3211_3058)">
<path d="M20.8673 14.6826C21.1875 14.687 21.4964 14.6914 21.8053 14.767C21.9992 14.9513 22.1954 15.1423 22.3014 15.3865C22.4006 15.6175 22.4074 15.8751 22.4141 16.1238C22.4457 17.4806 22.2743 18.7197 22.2676 20.0766C22.263 21.1114 22.1458 22.0863 22.1435 23.1233C22.1435 24.247 22.0286 25.3152 22.0534 26.4388C22.0714 27.2871 21.7287 28.1443 21.9271 28.9681C21.9496 29.0659 21.9812 29.1636 22.0398 29.2457C22.1413 29.3923 22.3172 29.4744 22.4931 29.5078C22.6689 29.5411 22.8516 29.5255 23.0297 29.5122C23.1019 29.5056 23.1763 29.4989 23.2371 29.4611C23.2777 29.4345 23.3093 29.3923 23.3341 29.3501C23.4829 29.1014 23.4852 28.7971 23.4829 28.5085C23.4806 27.9822 23.5032 27.4736 23.4784 26.9473C23.431 25.9014 23.3634 24.8555 23.2958 23.8095C23.2439 23.0034 23.1717 22.2062 23.1672 21.3979C23.1627 20.1921 23.156 18.9862 23.1515 17.7826C23.1515 17.6694 23.1515 17.5539 23.183 17.4429C23.2146 17.3319 23.2417 17.3007 23.3341 17.2319C23.51 17.0987 23.7242 16.9566 23.9384 17.0165C24.0692 17.052 24.1684 17.1564 24.2676 17.2474C24.581 17.525 24.9756 17.696 25.3634 17.8604C26.0557 18.1557 26.7569 18.451 27.4987 18.591C28.7096 18.8219 29.9407 18.7864 31.1358 18.4866C32.1708 18.229 33.1336 17.7516 34.0783 17.263C34.2632 17.1675 34.4504 17.0698 34.6195 16.9499C34.7277 16.8721 34.8292 16.7856 34.9397 16.7123C35.0998 16.6079 35.2757 16.5324 35.4403 16.4369C35.6139 16.3347 35.7311 16.2593 35.8912 16.1393C37.1675 15.1933 38.3355 14.1074 39.3659 12.906C39.8191 12.3775 40.3806 11.9467 40.8543 11.4382C41.9118 10.3056 43.1043 9.30633 44.3514 8.37811C44.9241 7.95174 45.4314 7.61863 46.0809 7.31441C46.3445 7.19004 46.5927 7.03459 46.8157 6.84807C46.836 6.8303 46.8563 6.81252 46.8699 6.79033C46.8924 6.75033 46.8879 6.70148 46.8721 6.6593C46.8293 6.54159 46.7101 6.46611 46.5882 6.43059C46.4664 6.39504 46.3377 6.39059 46.2114 6.36619C46.0222 6.32841 45.8462 6.24626 45.6661 6.17741C45.5284 6.12633 45.3863 6.08415 45.2464 6.04196C44.5116 5.82211 43.7741 5.60226 43.0389 5.38463C42.5428 5.23807 42.0513 5.20478 41.5553 5.04933C39.8214 4.50526 38.0356 4.57411 36.2182 4.6607C35.9205 4.67404 35.6229 4.67404 35.3253 4.70067C34.9803 4.73178 34.6421 4.82281 34.3083 4.9183C33.1245 5.25807 31.9498 5.53341 30.8562 6.09304C30.4616 6.29511 30.1031 6.55493 29.7446 6.81252C29.271 7.1523 28.7975 7.49426 28.3421 7.85404C28.0512 8.08274 27.7693 8.32037 27.4717 8.54244C27.2237 8.72896 26.9666 8.90441 26.7299 9.10426C26.2361 9.5173 25.7084 9.89704 25.3725 10.4433C25.2936 10.5721 25.2372 10.7143 25.174 10.8519C24.9012 11.4515 24.5111 11.9934 24.1842 12.5663C23.8572 13.1392 23.6994 13.7766 23.5934 14.425C23.519 14.8847 23.4942 15.351 23.519 15.8151C23.528 15.9817 23.5393 16.1638 23.4378 16.297C23.3995 16.3481 23.3454 16.388 23.2913 16.4236C23.2484 16.4502 23.2011 16.4769 23.1515 16.4769C23.1019 16.4769 23.0523 16.4502 23.0478 16.3991C22.9982 15.9817 23.0861 15.5642 23.1221 15.1467C23.2033 14.1985 23.0071 13.2503 22.9733 12.2998C22.9575 11.8201 22.9733 11.3116 22.7343 10.8941C22.7276 10.8808 22.7163 10.8653 22.7027 10.8608C22.6735 10.8519 22.6509 10.883 22.6396 10.9097C22.5697 11.0673 22.5539 11.2406 22.5427 11.4116C22.5133 11.849 22.5088 12.2909 22.5314 12.7284C22.36 12.3353 22.2653 11.9489 22.2495 11.5203C22.2089 10.4633 21.643 9.51063 21.2191 8.538C21.0973 8.25819 20.9868 7.97393 20.8154 7.72078C20.6689 7.50315 20.4817 7.31663 20.3307 7.10344C20.1841 6.8947 20.0714 6.66596 19.9271 6.455C19.7602 6.21296 19.5528 6.00422 19.3453 5.79544C18.9192 5.36689 18.4457 5.02933 18.0217 4.59852C17.5572 4.12552 17.0905 3.65474 16.5922 3.21504C15.5144 2.26904 14.4411 1.27862 13.0476 0.912211C11.9788 0.630185 10.8604 0.627967 9.75554 0.592437C7.55483 0.525815 5.35637 0.332615 3.17596 0.0172802C3.14439 -0.0315745 3.00234 0.0328253 3.00008 0.0905626C2.99783 0.1483 3.04292 0.194936 3.079 0.24157C3.19851 0.394796 3.23684 0.592433 3.29997 0.77453C3.45781 1.22977 3.77123 1.61172 4.00123 2.03365C4.28533 2.55995 4.4364 3.15287 4.78139 3.64141C5.86146 5.167 6.16811 7.11456 7.36995 8.54907C7.79611 9.05541 8.13657 9.47511 8.61008 9.937C9.47819 10.7853 10.4906 11.4915 11.5932 12.0133C11.9089 12.1621 12.1209 12.3531 12.4456 12.4863C13.2979 12.8372 14.1389 13.2103 14.9822 13.5833C15.2618 13.7077 15.5437 13.8321 15.8233 13.9564C15.9924 14.0319 16.0713 14.0475 16.2517 14.0874C16.4997 14.1407 16.75 14.194 16.9981 14.2496C17.2393 14.3006 17.4806 14.3539 17.7218 14.405C17.9518 14.4539 18.1818 14.5049 18.4141 14.5382C18.6012 14.5649 18.7906 14.5827 18.98 14.5982C19.688 14.6604 20.3983 14.7226 21.1063 14.687" fill="#96C636"/>
<path d="M23.7443 13.5458C23.5639 13.9011 23.5939 15.3963 23.6315 16.0995H23.9697L27.2392 14.8782L31.0725 12.8796L35.8076 10.5479C37.3108 9.77064 40.4074 8.12735 40.7682 7.77205C41.2191 7.3279 46.6308 6.77272 46.8564 6.77272C47.0365 6.77272 46.8564 6.55068 46.7436 6.43964C46.6684 6.4026 46.4728 6.3286 46.2927 6.3286C46.1122 6.3286 45.6913 6.18057 45.5033 6.10653L44.1506 5.66238L42.3466 5.21827C41.7453 5.07023 40.4977 4.77412 40.3173 4.77412C40.1369 4.77412 38.8892 4.70012 38.2879 4.66309H36.7095C36.2586 4.70012 35.3116 4.77412 35.1312 4.77412C34.9057 4.77412 34.2292 4.9962 34.1165 4.9962C34.0037 4.9962 32.6508 5.44035 31.7489 5.77342C31.0274 6.0399 30.2457 6.47664 29.9451 6.66168L28.3667 7.77205C28.0285 8.10512 27.2844 8.81575 27.0138 8.99338C26.6756 9.21546 25.8864 9.6596 25.5481 10.1037C25.2776 10.459 25.1348 10.844 25.0972 10.992L24.5335 11.9913L23.9697 13.1016L23.7443 13.5458Z" fill="#84BB3B"/>
<path d="M23.5188 16.0993C24.1577 15.9142 25.503 15.5219 25.7736 15.4331C26.0442 15.3443 27.3144 14.8039 27.9157 14.5448L31.9744 12.4352L36.5968 10.2145L40.2045 8.2159C40.2421 8.14187 40.4075 7.94942 40.7681 7.77176C41.1291 7.59413 42.046 7.40165 42.4593 7.32765C42.9854 7.21661 44.1279 6.99453 44.4886 6.99453C44.8496 6.99453 46.1421 6.8465 46.7435 6.77246H46.8563H46.9691" stroke="#A7D64C"/>
<path d="M21.7149 9.77096C21.8952 9.85978 22.3161 11.8066 22.5041 12.7689L20.362 11.9916C20.0237 11.6585 19.2346 10.9479 18.7836 10.7703C18.3326 10.5926 15.7396 8.62359 14.4994 7.6613L8.63687 4.21926L3.45077 1.11033L3.11255 0.222067V0L4.57819 0.222067L8.63687 0.555167L12.0191 0.777233C13.372 0.866059 14.8376 1.77654 15.4014 2.22067C16.1154 2.84986 17.566 4.13044 17.6562 4.21926C17.7689 4.3303 19.0091 5.77374 20.0237 6.662C21.0384 7.55026 21.4894 9.65993 21.7149 9.77096Z" fill="#84BB3B"/>
<path d="M22.5043 12.7692L20.3622 11.9919L15.9653 8.883L11.2302 5.77407L7.17149 3.44235L3.67651 1.22168" stroke="#A7D64C"/>
<path d="M22.6168 10.9918L22.6139 11.0402M22.6139 11.0402L22.5041 12.8794V15.4331L22.3913 18.7641L22.1658 22.4283V24.6489L22.0531 26.6475L21.8276 27.8689V28.9792C21.8652 29.0903 22.008 29.3346 22.2786 29.4234C22.6168 29.5344 22.955 29.7565 23.1805 29.5344C23.3609 29.3567 23.406 29.0903 23.406 28.9792V27.9799V26.5365V24.871C23.3308 24.4269 23.1805 23.4942 23.1805 23.3165C23.1805 23.1389 23.1805 21.9841 23.1805 21.429V19.7634V17.5428C23.1429 17.1357 23.0678 16.277 23.0678 16.0993C23.0678 15.9217 23.1429 14.989 23.1805 14.5449L22.955 12.5463L22.8423 10.9918C22.8047 10.7327 22.707 10.3478 22.6168 10.8808C22.5266 11.4137 22.5773 11.2091 22.6139 11.0402Z" stroke="#82A660"/>
</g>
<defs>
<clipPath id="clip0_3211_3058">
<rect width="44" height="30" fill="white" transform="translate(3)"/>
</clipPath>
</defs>
</svg>
