<svg width="44" height="34" viewBox="0 0 44 34" fill="none" xmlns="http://www.w3.org/2000/svg">
<g clip-path="url(#clip0_2916_13001)">
<path d="M20.275 23.812C20.6495 24.2875 20.9133 24.6102 21.054 24.7508C21.0821 24.7786 21.1559 24.8532 21.17 24.9625C21.1806 25.0423 21.1841 25.1829 21.1032 25.195C11.9715 26.6249 7.98865 27.2601 7.85501 27.3034C7.84797 27.3052 7.72136 27.352 7.55607 27.3503C7.51562 27.3503 7.47518 27.3503 7.43474 27.3416C7.3345 27.3225 7.22196 27.2774 7.19207 27.182C7.14635 27.0327 7.07425 26.8245 6.96347 26.5868C6.83686 26.3195 6.56606 25.8614 6.05787 25.3096C5.47934 24.6831 4.66869 23.8051 3.59955 23.8415C3.49053 23.845 2.69747 23.8727 2.133 24.4176C2.11893 24.4298 2.0697 24.4836 2.00815 24.5512C1.03925 25.6133 0.444888 26.9789 0.211014 28.3898C-0.0228601 29.7988 0.0914393 31.253 0.422028 32.643C0.487091 32.9155 0.627767 33.1081 0.789545 33.3389C0.845815 33.4187 0.902086 33.4985 0.974182 33.5645C1.06914 33.653 1.1852 33.7172 1.30653 33.7658C1.90265 34.0104 2.59723 33.9271 3.18456 33.6634C3.77188 33.3996 4.26425 32.9693 4.71793 32.5163C5.2947 31.9367 5.87675 31.3988 6.43945 30.8036C6.50627 30.7342 6.57309 30.663 6.65574 30.6144C6.86148 30.4912 7.07777 30.5086 7.11294 30.5103C7.43298 30.519 14.2927 29.9116 23.929 29.0422C24.0715 29.0301 24.2121 29.0561 24.3264 29.1377C24.4425 29.2192 24.5287 29.3338 24.606 29.4518C24.8346 29.8023 24.9929 30.2066 25.3024 30.4912C25.538 30.7081 25.844 30.8348 26.1552 30.9181C27.2015 31.1992 28.2583 30.7776 28.6171 30.6266C31.5238 29.4084 33.1644 28.3377 33.1644 28.3377C34.2001 27.6627 35.577 26.7568 37.2739 25.3096C38.5347 24.2337 39.8043 23.1508 41.1443 21.4207C41.1443 21.4207 41.9338 20.4663 43.2861 18.0299C43.4004 17.8234 43.6272 17.4052 43.6237 16.843C43.6219 16.2998 43.3951 15.8938 43.2052 15.5502C43.0258 15.2239 42.6917 14.719 42.0956 14.2383C41.8723 14.0578 41.656 13.8079 41.4731 13.5858C41.4502 13.558 41.4274 13.5303 41.4168 13.4973C41.408 13.473 41.408 13.447 41.408 13.4209C41.4151 13.2613 41.5171 13.1225 41.6138 12.9958C41.7246 12.85 41.758 12.8084 41.8512 12.6834C41.8512 12.6834 41.9285 12.5776 42.0376 12.4214C43.7011 10.0076 43.9033 7.71523 43.9033 7.71523C43.9033 7.33519 43.9226 7.00375 43.9033 6.33565C43.8751 5.31355 43.8593 4.80337 43.7415 4.35566C43.4848 3.38041 42.9133 2.74876 42.4156 2.19866C42.1167 1.86722 41.4766 1.16094 40.5165 0.676791C38.5576 -0.307132 35.89 -0.0485702 34.0647 1.36571C33.2365 2.00778 32.7477 2.75917 32.4698 3.29364C32.4311 3.36826 32.3608 3.42032 32.2764 3.43768C32.192 3.45503 32.1023 3.43594 32.0337 3.38735C31.9915 3.35785 31.9581 3.31967 31.9247 3.2815C31.8086 3.14788 31.6873 3.0212 31.5853 2.8789C31.0806 2.18131 30.6832 1.63121 30.1504 1.38133C29.8234 1.22689 29.542 1.23209 29.1059 1.23903C28.508 1.24771 28.028 1.39521 26.8832 1.88804C25.9565 2.28543 25.494 2.48499 24.9366 2.78346C23.9554 3.30926 23.2098 3.82118 22.3816 4.42681C21.4144 5.13308 20.0675 6.09618 18.4198 7.57987C17.479 8.42844 16.7932 9.04968 15.9826 10.0353C15.1667 11.0262 14.764 11.6683 14.6022 11.9511C14.1503 12.7355 13.8654 13.4452 13.686 13.9762C13.5911 14.2539 13.6456 14.6287 13.7318 14.9081C13.7687 15.0261 13.8214 15.1094 13.8584 15.1753C14.0201 15.4617 14.203 15.6335 14.2382 15.6682C14.3331 15.7619 15.353 17.1137 17.3929 19.8156C17.887 20.4698 18.5183 21.3079 19.2533 22.2901C19.6032 22.7569 19.918 23.3539 20.2785 23.8137L20.275 23.812Z" fill="#C83232"/>
<path d="M34.9738 6.55268C35.7018 7.32663 36.2892 7.95481 36.6901 8.38517C37.4831 9.23548 38.4204 9.97125 39.0781 10.9291C39.1396 11.0194 39.1888 11.0593 39.282 11.1443C39.3418 11.1999 39.4104 11.2536 39.4913 11.2606C39.5493 11.2658 39.6091 11.2467 39.6601 11.2172C39.7111 11.1877 39.7744 11.1218 39.8148 11.0784C39.8518 11.0385 39.908 10.9777 39.9714 10.8979C40.2439 10.5595 40.374 10.2454 40.4831 10.0389C40.6906 9.64154 41.0018 9.03418 41.1882 8.19776C41.364 7.40472 41.3465 6.77827 41.3394 6.61689C41.3166 6.05465 41.2919 5.42646 40.9244 4.73581C40.7855 4.47378 40.4866 3.92715 39.8606 3.53671C39.0376 3.02305 38.1777 3.10635 37.6643 3.15494C37.2844 3.19138 36.0904 3.32326 35.1075 4.28636C34.6133 4.77051 34.3549 5.28764 34.2247 5.61214C34.186 5.70758 34.2722 5.83253 34.3338 5.91409C34.5096 6.14488 34.7751 6.34097 34.9738 6.55268Z" fill="#E4D38E"/>
<path d="M2.3159 24.6331C2.40734 24.5498 2.49878 24.4717 2.63593 24.4457C2.89443 24.3954 3.12303 24.5654 3.21447 24.6331C3.69276 24.9854 3.83168 25.624 3.87213 25.8339C4.07435 26.8526 3.99522 27.8105 3.87213 28.6157C3.74903 29.426 3.52044 30.469 2.96301 31.59C2.63418 32.2511 2.36865 32.5826 1.95893 32.7283C1.89563 32.7509 1.27489 32.9852 0.819453 32.6659C0.585579 32.501 0.508207 32.272 0.385115 31.8954C0.207511 31.3488 0.200478 30.9028 0.193444 30.2833C0.18641 29.61 0.246197 29.1345 0.262023 29.02C0.320052 28.5775 0.400941 28.2478 0.466004 27.9823C0.571511 27.5519 0.661192 27.1944 0.849347 26.7415C1.09729 26.1446 1.3593 25.7645 1.65648 25.3342C1.65648 25.3342 1.84639 25.06 2.3159 24.6314V24.6331Z" fill="#B41E1E"/>
<path d="M37.2282 11.7172C37.3003 11.7832 37.3689 11.8682 37.5043 12.0365C37.5254 12.0608 37.5623 12.1077 37.5887 12.1788C37.6133 12.2448 37.6168 12.3159 37.6186 12.3853C37.6221 12.5433 37.5957 12.7133 37.5904 12.8695C37.5869 12.9667 37.499 13.0378 37.4146 13.0899C37.2317 13.2027 37.0277 13.2912 36.8132 13.3103C36.5987 13.3293 36.3261 13.2651 36.1854 13.1038C35.8461 12.7133 35.5032 12.3211 35.1585 11.9289C34.3039 10.9606 33.4511 10.0114 32.6 9.0813C32.3925 8.85397 32.4241 8.47915 32.5367 8.19282C32.5578 8.13902 32.5877 8.08696 32.6299 8.04705C32.6932 7.98632 32.7811 7.95855 32.8672 7.93773C33.0009 7.90649 33.1398 7.8874 33.277 7.90302C33.342 7.90996 33.4229 7.90302 33.4862 7.92385C33.5442 7.9412 33.7412 7.97591 33.9487 8.11994C34.0929 8.21885 34.1808 8.3247 34.2089 8.35767C34.5817 8.80191 36.8941 11.4118 37.23 11.7155L37.2282 11.7172Z" fill="#DC4646"/>
<path d="M25.7754 9.15397C26.3469 8.64553 26.4788 8.5067 26.8059 8.19088C26.8059 8.19088 28.0403 6.99871 29.9729 4.24304C30.0485 4.13545 30.27 3.83177 30.2613 3.4257C30.2542 3.1307 30.1364 2.83917 29.9359 2.62225C29.899 2.58234 29.8111 2.53549 29.7566 2.52855C29.4066 2.47996 28.8985 2.44352 28.3006 2.52855C27.5743 2.63266 27.0187 2.91726 26.1289 3.34588C25.531 3.63221 24.9578 3.96365 23.5088 4.97881C22.7456 5.51329 21.7627 6.22129 20.6302 7.08895C20.5229 7.17051 20.4719 7.26422 20.4526 7.3961C20.4034 7.71366 20.544 8.05031 20.8043 8.24293C20.9643 8.36094 21.1437 8.47026 21.316 8.56744C21.7222 8.79476 22.1337 9.02383 22.5786 9.16092C22.8124 9.2338 23.0516 9.28065 23.2925 9.32403C23.7022 9.40039 24.1436 9.40386 24.5603 9.41254C24.9771 9.42121 25.466 9.43162 25.7754 9.15744V9.15397Z" fill="#AA1414"/>
<path d="M24.4074 10.4138C23.9766 10.7851 23.2117 11.4411 22.241 12.1682C21.4057 12.7929 20.4632 13.4783 19.2763 14.1256C18.7135 14.4327 18.2704 14.5993 17.3842 14.936C16.9903 15.0852 16.512 15.2067 15.8983 15.205C15.6028 15.205 15.2793 15.1408 15.0911 14.9152C14.8801 14.6618 14.7975 14.1985 14.9434 13.9052C15.1914 13.4089 15.5413 12.7582 16.009 12.0259C16.4293 11.3664 16.9762 10.5213 17.8326 9.59469C18.4058 8.97692 19.2587 8.17 20.4474 7.39258C20.4632 7.74138 20.5986 8.07976 20.8712 8.30015C21.0998 8.48583 21.3864 8.58647 21.6291 8.75306C21.7047 8.80512 21.775 8.86239 21.8541 8.90577C21.928 8.94568 22.0071 8.97171 22.0863 8.99774C22.4749 9.12616 22.8653 9.25457 23.2662 9.3396C23.5722 9.40554 23.8852 9.44545 24.1982 9.46107C24.3494 9.46801 24.5164 9.48537 24.6677 9.46281C24.8189 9.44025 24.9543 9.3986 25.0985 9.36737C25.1372 9.35869 25.1759 9.35001 25.2163 9.34481C25.2462 9.3396 25.2779 9.33613 25.3077 9.34134C25.3376 9.34654 25.3675 9.36216 25.3816 9.38992C25.4062 9.43504 25.3798 9.49057 25.3517 9.53396C25.3236 9.57907 25.2972 9.63287 25.2585 9.66931C25.2286 9.69534 25.1934 9.71963 25.1636 9.7474C25.0897 9.81334 25.0158 9.87928 24.9402 9.94696C24.7626 10.1049 24.585 10.2611 24.4057 10.4155L24.4074 10.4138Z" fill="#D23C3C"/>
</g>
<defs>
<clipPath id="clip0_2916_13001">
<rect width="44" height="34" fill="white"/>
</clipPath>
</defs>
</svg>
