<svg width="160" height="125" viewBox="0 0 160 125" fill="none" xmlns="http://www.w3.org/2000/svg">
<g clip-path="url(#clip0_3519_3047)">
<path d="M73.7273 87.5448C75.0893 89.2929 76.0485 90.4795 76.56 90.9963C76.6623 91.0984 76.9309 91.3727 76.982 91.7747C77.0204 92.0681 77.0332 92.5849 76.7391 92.6295C43.5331 97.8865 29.0498 100.222 28.5638 100.381C28.5382 100.387 28.0778 100.56 27.4768 100.553C27.3297 100.553 27.1826 100.553 27.0356 100.521C26.6711 100.451 26.2618 100.285 26.1531 99.9344C25.9869 99.3858 25.7247 98.6202 25.3219 97.7462C24.8615 96.7637 23.8767 95.0794 22.0288 93.0506C19.925 90.7475 16.9772 87.5193 13.0894 87.6533C12.693 87.666 9.80911 87.7681 7.75651 89.7714C7.70536 89.816 7.52631 90.0138 7.30251 90.2626C3.77921 94.1671 1.61791 99.188 0.767457 104.375C-0.0829948 109.555 0.33264 114.902 1.53478 120.012C1.77137 121.013 2.28292 121.722 2.87121 122.57C3.07583 122.864 3.28045 123.157 3.54262 123.399C3.88791 123.725 4.30994 123.961 4.75115 124.14C6.91885 125.039 9.44463 124.733 11.5804 123.763C13.7161 122.793 15.5065 121.211 17.1562 119.546C19.2536 117.415 21.3701 115.437 23.4163 113.249C23.6593 112.994 23.9023 112.732 24.2028 112.554C24.951 112.101 25.7375 112.165 25.8654 112.171C27.0292 112.203 51.9736 109.97 87.0148 106.774C87.5328 106.729 88.0443 106.825 88.4599 107.125C88.882 107.424 89.1953 107.845 89.4767 108.279C90.3079 109.568 90.8834 111.054 92.0088 112.101C92.8657 112.898 93.9783 113.364 95.1101 113.67C98.9148 114.704 102.758 113.153 104.062 112.598C114.632 108.12 120.598 104.183 120.598 104.183C124.364 101.702 129.371 98.3714 135.542 93.0506C140.127 89.0951 144.743 85.1141 149.616 78.7534C149.616 78.7534 152.487 75.2445 157.404 66.2872C157.82 65.528 158.645 63.9905 158.632 61.9234C158.625 59.9266 157.801 58.4337 157.11 57.1705C156.458 55.9711 155.243 54.1145 153.075 52.3473C152.263 51.6838 151.477 50.7651 150.812 49.9485C150.728 49.8464 150.645 49.7444 150.607 49.6231C150.575 49.5338 150.575 49.4381 150.575 49.3424C150.601 48.7555 150.971 48.2451 151.323 47.7794C151.726 47.2435 151.847 47.0903 152.186 46.631C152.186 46.631 152.468 46.2418 152.864 45.6676C158.913 36.7933 159.649 28.3656 159.649 28.3656C159.649 26.9684 159.719 25.7498 159.649 23.2936C159.546 19.5359 159.489 17.6602 159.06 16.0142C158.127 12.4287 156.049 10.1065 154.239 8.08408C153.152 6.86554 150.824 4.26895 147.333 2.48898C140.21 -1.12839 130.509 -0.177791 123.872 5.02177C120.86 7.3823 119.083 10.1448 118.072 12.1098C117.932 12.3841 117.676 12.5755 117.369 12.6393C117.062 12.7031 116.736 12.6329 116.487 12.4543C116.333 12.3458 116.212 12.2055 116.09 12.0651C115.668 11.5738 115.227 11.1081 114.856 10.585C113.021 8.02029 111.576 5.99788 109.638 5.07919C108.449 4.51138 107.426 4.53052 105.84 4.55604C103.666 4.58794 101.92 5.13022 97.7574 6.9421C94.3875 8.40308 92.7058 9.13676 90.6788 10.2341C87.1107 12.1672 84.3995 14.0492 81.3878 16.2758C77.8709 18.8724 72.9728 22.4132 66.9812 27.8679C63.5602 30.9877 61.0664 33.2716 58.1186 36.8954C55.1516 40.5383 53.6873 42.8988 53.099 43.9387C51.4557 46.8224 50.4198 49.4317 49.7676 51.384C49.4223 52.4047 49.6205 53.7828 49.9338 54.8099C50.0681 55.2438 50.2599 55.55 50.3942 55.7924C50.9825 56.8451 51.6475 57.4767 51.7754 57.6043C52.1207 57.9488 55.8294 62.9187 63.2469 72.8521C65.0437 75.2573 67.3393 78.3387 70.0122 81.9497C71.2847 83.6659 72.4292 85.8605 73.7401 87.5512L73.7273 87.5448Z" fill="#C83232"/>
<path d="M8.42127 90.5626C8.75378 90.2564 9.08628 89.9693 9.58504 89.8736C10.525 89.6885 11.3563 90.3138 11.6888 90.5626C13.4281 91.8577 13.9332 94.2055 14.0803 94.9774C14.8156 98.7224 14.5279 102.244 14.0803 105.204C13.6327 108.184 12.8014 112.018 10.7744 116.139C9.57865 118.57 8.6131 119.789 7.12321 120.325C6.89301 120.407 4.6358 121.269 2.97965 120.095C2.1292 119.489 1.84785 118.647 1.40024 117.262C0.754409 115.253 0.728832 113.613 0.703254 111.335C0.677677 108.86 0.895085 107.112 0.952635 106.691C1.16365 105.064 1.45779 103.852 1.69438 102.876C2.07805 101.293 2.40416 99.9792 3.08836 98.3141C3.98996 96.1194 4.94273 94.7222 6.02338 93.14C6.02338 93.14 6.71397 92.132 8.42127 90.5562V90.5626Z" fill="#B41E1E"/>
<path d="M135.375 43.0765C135.637 43.3189 135.887 43.6316 136.379 44.2504C136.456 44.3397 136.59 44.512 136.686 44.7735C136.776 45.016 136.788 45.2775 136.795 45.5327C136.808 46.1133 136.712 46.7385 136.692 47.3127C136.68 47.67 136.36 47.9316 136.053 48.123C135.388 48.5376 134.646 48.863 133.866 48.9332C133.086 49.0034 132.095 48.7673 131.583 48.174C130.349 46.7385 129.102 45.2967 127.849 43.8548C124.741 40.2949 121.64 36.8051 118.545 33.3856C117.791 32.5498 117.906 31.1717 118.315 30.1191C118.392 29.9213 118.501 29.7299 118.654 29.5832C118.884 29.3599 119.204 29.2578 119.517 29.1812C120.003 29.0664 120.508 28.9962 121.007 29.0536C121.244 29.0792 121.538 29.0536 121.768 29.1302C121.979 29.194 122.695 29.3216 123.45 29.8511C123.974 30.2148 124.294 30.6039 124.396 30.7252C125.752 32.3584 134.16 41.9537 135.382 43.0701L135.375 43.0765Z" fill="#DC4646"/>
<path d="M93.729 33.6532C95.8072 31.7839 96.2868 31.2735 97.4761 30.1123C97.4761 30.1123 101.965 25.7294 108.992 15.5982C109.267 15.2027 110.073 14.0862 110.041 12.5933C110.015 11.5087 109.587 10.4369 108.858 9.63946C108.724 9.49272 108.404 9.32047 108.206 9.29495C106.933 9.11631 105.085 8.98234 102.911 9.29495C100.27 9.67774 98.2498 10.724 95.0143 12.2998C92.8402 13.3525 90.7556 14.5711 85.4867 18.3033C82.7115 20.2683 79.1371 22.8712 75.0191 26.0611C74.6291 26.361 74.4436 26.7055 74.3733 27.1904C74.1942 28.3579 74.7058 29.5956 75.6522 30.3037C76.234 30.7376 76.8863 31.1395 77.5129 31.4968C78.99 32.3325 80.4863 33.1747 82.1041 33.6787C82.9545 33.9466 83.8242 34.1189 84.7002 34.2784C86.1901 34.5591 87.7951 34.5718 89.3105 34.6037C90.826 34.6356 92.6036 34.6739 93.729 33.6659V33.6532Z" fill="#AA1414"/>
<path d="M88.7538 38.285C87.1871 39.6503 84.4056 42.0619 80.8759 44.735C77.8386 47.0318 74.4112 49.5518 70.095 51.9315C68.0488 53.0607 66.4374 53.6732 63.2146 54.9108C61.7823 55.4595 60.043 55.9061 57.8114 55.8997C56.7371 55.8997 55.5606 55.6637 54.8764 54.8343C54.109 53.9028 53.8085 52.1994 54.3392 51.1212C55.2408 49.2966 56.5133 46.9042 58.2142 44.2119C59.7425 41.7875 61.7311 38.6806 64.8452 35.2737C66.9298 33.0025 70.031 30.0359 74.3536 27.1777C74.4112 28.4601 74.9035 29.7041 75.8947 30.5144C76.7259 31.197 77.7682 31.5671 78.6507 32.1795C78.9256 32.3709 79.1814 32.5814 79.4691 32.7409C79.7377 32.8877 80.0254 32.9834 80.3132 33.0791C81.7263 33.5512 83.1459 34.0233 84.6038 34.3359C85.7164 34.5783 86.8546 34.7251 87.9928 34.7825C88.5428 34.808 89.1502 34.8718 89.7001 34.7889C90.2501 34.7059 90.7424 34.5528 91.2668 34.438C91.4074 34.4061 91.5481 34.3742 91.6952 34.355C91.8039 34.3359 91.919 34.3231 92.0277 34.3423C92.1364 34.3614 92.2451 34.4188 92.2963 34.5209C92.3858 34.6868 92.2899 34.8909 92.1875 35.0504C92.0852 35.2163 91.9893 35.4141 91.8486 35.5481C91.7399 35.6438 91.6121 35.7331 91.5034 35.8352C91.2348 36.0776 90.9662 36.32 90.6913 36.5688C90.0454 37.1494 89.3996 37.7236 88.7474 38.2914L88.7538 38.285Z" fill="#D23C3C"/>
<path d="M127.759 22.1269C130.406 24.9723 132.542 27.2818 134 28.864C136.884 31.9901 140.292 34.6952 142.684 38.2168C142.907 38.5486 143.086 38.6953 143.425 39.0079C143.643 39.2121 143.892 39.4098 144.186 39.4354C144.397 39.4545 144.615 39.3843 144.8 39.2759C144.985 39.1674 145.216 38.925 145.363 38.7655C145.497 38.6188 145.702 38.3955 145.932 38.102C146.923 36.8579 147.396 35.7032 147.793 34.944C148.547 33.483 149.679 31.2501 150.357 28.175C150.996 25.2594 150.932 22.9563 150.907 22.363C150.824 20.2959 150.734 17.9864 149.398 15.4472C148.892 14.4839 147.805 12.4742 145.529 11.0388C142.536 9.15033 139.41 9.45656 137.542 9.6352C136.161 9.76917 131.819 10.254 128.245 13.7948C126.448 15.5748 125.508 17.476 125.035 18.669C124.894 19.0199 125.208 19.4793 125.432 19.7791C126.071 20.6276 127.036 21.3486 127.759 22.1269Z" fill="#EFF4EE"/>
</g>
<defs>
<clipPath id="clip0_3519_3047">
<rect width="160" height="125" fill="white"/>
</clipPath>
</defs>
</svg>
