<svg width="55" height="43" viewBox="0 0 55 43" fill="none" xmlns="http://www.w3.org/2000/svg">
<g clip-path="url(#clip0_3519_3047)">
<path d="M25.3435 30.1146C25.8117 30.7159 26.1414 31.1242 26.3173 31.3019C26.3524 31.337 26.4448 31.4314 26.4623 31.5697C26.4755 31.6706 26.4799 31.8484 26.3788 31.8638C14.9643 33.6722 9.98564 34.4754 9.81858 34.5303C9.80979 34.5325 9.65153 34.5917 9.44491 34.5895C9.39436 34.5895 9.3438 34.5895 9.29324 34.5785C9.16795 34.5544 9.02728 34.4973 8.98991 34.3766C8.93276 34.1879 8.84264 33.9245 8.70416 33.6239C8.5459 33.2859 8.2074 32.7065 7.57216 32.0086C6.84899 31.2163 5.83569 30.1058 4.49926 30.1519C4.36298 30.1563 3.37165 30.1914 2.66607 30.8805C2.64849 30.8959 2.58694 30.9639 2.51001 31.0495C1.29887 32.3927 0.555928 34.1199 0.263585 35.9041C-0.0287583 37.6862 0.114116 39.5253 0.527353 41.2832C0.608681 41.6278 0.784526 41.8714 0.986749 42.1633C1.05709 42.2642 1.12743 42.3652 1.21755 42.4486C1.33624 42.5605 1.48131 42.6417 1.63298 42.7032C2.37813 43.0126 3.24636 42.9073 3.98052 42.5737C4.71467 42.2401 5.33013 41.6958 5.89723 41.123C6.6182 40.39 7.34576 39.7097 8.04914 38.9569C8.13267 38.8691 8.21619 38.7791 8.3195 38.7177C8.57667 38.5619 8.84704 38.5838 8.891 38.586C9.29105 38.597 17.8657 37.8288 29.9111 36.7293C30.0892 36.714 30.265 36.7469 30.4079 36.85C30.553 36.9532 30.6607 37.098 30.7574 37.2473C31.0431 37.6906 31.2409 38.2019 31.6278 38.5619C31.9223 38.8362 32.3048 38.9964 32.6939 39.1017C34.0017 39.4573 35.3228 38.924 35.7712 38.733C39.4046 37.1924 41.4554 35.8383 41.4554 35.8383C42.75 34.9846 44.4711 33.8389 46.5923 32.0086C48.1683 30.6479 49.7553 29.2784 51.4302 27.0904C51.4302 27.0904 52.4171 25.8833 54.1074 22.802C54.2503 22.5408 54.5339 22.0119 54.5295 21.3009C54.5273 20.6139 54.2437 20.1004 54.0063 19.6658C53.7821 19.2532 53.3645 18.6146 52.6194 18.0067C52.3402 17.7784 52.0698 17.4624 51.8412 17.1815C51.8127 17.1464 51.7841 17.1112 51.7709 17.0695C51.7599 17.0388 51.7599 17.0059 51.7599 16.973C51.7687 16.7711 51.8962 16.5955 52.0171 16.4353C52.1556 16.2509 52.1973 16.1983 52.3138 16.0403C52.3138 16.0403 52.4105 15.9064 52.5468 15.7089C54.6262 12.6561 54.879 9.75694 54.879 9.75694C54.879 9.27631 54.9031 8.85713 54.879 8.01218C54.8438 6.71953 54.824 6.0743 54.6767 5.50808C54.3558 4.27468 53.6415 3.47582 53.0194 2.78011C52.6457 2.36093 51.8456 1.46771 50.6455 0.855395C48.1968 -0.388977 44.8624 -0.0619727 42.5808 1.72668C41.5455 2.5387 40.9344 3.48899 40.5871 4.16494C40.5388 4.25931 40.4509 4.32515 40.3453 4.3471C40.2398 4.36905 40.1277 4.34491 40.042 4.28346C39.9893 4.24615 39.9475 4.19786 39.9057 4.14958C39.7607 3.98059 39.609 3.82038 39.4815 3.64042C38.8507 2.75817 38.3539 2.06246 37.6879 1.74643C37.279 1.5511 36.9273 1.55769 36.3822 1.56647C35.6349 1.57744 35.0348 1.76398 33.6039 2.38727C32.4455 2.88985 31.8674 3.14223 31.1706 3.51971C29.9441 4.1847 29.0121 4.83212 27.9768 5.59806C26.7679 6.49128 25.0842 7.70932 23.0246 9.58575C21.8486 10.6589 20.9914 11.4446 19.9781 12.6912C18.9581 13.9444 18.4548 14.7564 18.2526 15.1141C17.6877 16.1061 17.3316 17.0037 17.1074 17.6753C16.9887 18.0264 17.0568 18.5005 17.1645 18.8538C17.2107 19.003 17.2766 19.1084 17.3228 19.1918C17.525 19.5539 17.7536 19.7712 17.7976 19.8151C17.9163 19.9336 19.1911 21.6432 21.7409 25.0603C22.3586 25.8877 23.1477 26.9477 24.0665 28.1899C24.5039 28.7803 24.8973 29.5352 25.3479 30.1168L25.3435 30.1146Z" fill="#C83232"/>
<path d="M2.89499 31.1529C3.00929 31.0476 3.12359 30.9488 3.29504 30.9159C3.61816 30.8523 3.90391 31.0673 4.01821 31.1529C4.61608 31.5984 4.78973 32.4061 4.84028 32.6716C5.09306 33.9599 4.99415 35.1713 4.84028 36.1897C4.68642 37.2146 4.40067 38.5336 3.70388 39.9513C3.29284 40.7875 2.96094 41.2067 2.44879 41.391C2.36966 41.4196 1.59374 41.7158 1.02444 41.312C0.732096 41.1035 0.635381 40.8138 0.481516 40.3376C0.259511 39.6463 0.250719 39.0822 0.241927 38.2987C0.233134 37.4472 0.307869 36.8459 0.327651 36.701C0.400188 36.1414 0.501299 35.7244 0.582627 35.3886C0.714511 34.8443 0.826613 34.3922 1.06181 33.8194C1.37173 33.0645 1.69925 32.5838 2.07072 32.0396C2.07072 32.0396 2.30811 31.6928 2.89499 31.1507V31.1529Z" fill="#B41E1E"/>
<path d="M46.5348 14.8192C46.6249 14.9026 46.7107 15.0101 46.8799 15.223C46.9063 15.2537 46.9524 15.313 46.9854 15.403C47.0162 15.4864 47.0206 15.5763 47.0228 15.6641C47.0272 15.8638 46.9942 16.0789 46.9876 16.2764C46.9832 16.3993 46.8733 16.4893 46.7678 16.5552C46.5392 16.6978 46.2842 16.8097 46.0161 16.8339C45.7479 16.858 45.4072 16.7768 45.2314 16.5727C44.8071 16.0789 44.3785 15.5829 43.9477 15.0869C42.8794 13.8623 41.8134 12.6618 40.7495 11.4855C40.4902 11.198 40.5297 10.7239 40.6704 10.3618C40.6968 10.2938 40.7341 10.2279 40.7869 10.1775C40.866 10.1007 40.9759 10.0655 41.0836 10.0392C41.2507 9.9997 41.4243 9.97556 41.5958 9.99531C41.6771 10.0041 41.7782 9.99531 41.8573 10.0217C41.9299 10.0436 42.1761 10.0875 42.4354 10.2696C42.6157 10.3947 42.7256 10.5286 42.7607 10.5703C43.2267 11.1321 46.1172 14.4329 46.537 14.817L46.5348 14.8192Z" fill="#DC4646"/>
<path d="M32.2194 11.5765C32.9338 10.9335 33.0986 10.7579 33.5075 10.3585C33.5075 10.3585 35.0505 8.85077 37.4662 5.36565C37.5607 5.22958 37.8377 4.84551 37.8267 4.33196C37.8179 3.95887 37.6706 3.59017 37.42 3.31583C37.3739 3.26536 37.264 3.2061 37.1958 3.19732C36.7584 3.13587 36.1232 3.08978 35.3758 3.19732C34.468 3.329 33.7734 3.68893 32.6612 4.23101C31.9139 4.59313 31.1973 5.01231 29.3861 6.29619C28.4322 6.97214 27.2034 7.86756 25.7879 8.9649C25.6538 9.06804 25.5901 9.18656 25.5659 9.35335C25.5043 9.75497 25.6802 10.1807 26.0055 10.4243C26.2055 10.5736 26.4297 10.7118 26.6451 10.8347C27.1529 11.1222 27.6672 11.4119 28.2233 11.5853C28.5157 11.6775 28.8146 11.7368 29.1157 11.7916C29.6279 11.8882 30.1796 11.8926 30.7006 11.9035C31.2215 11.9145 31.8326 11.9277 32.2194 11.5809V11.5765Z" fill="#AA1414"/>
<path d="M30.5088 13.1705C29.9703 13.6402 29.0142 14.4698 27.8008 15.3893C26.7567 16.1794 25.5786 17.0463 24.0949 17.8649C23.3915 18.2533 22.8376 18.464 21.7298 18.8898C21.2374 19.0785 20.6395 19.2322 19.8724 19.23C19.5031 19.23 19.0987 19.1488 18.8635 18.8635C18.5997 18.543 18.4964 17.9571 18.6789 17.5862C18.9888 16.9585 19.4262 16.1355 20.0109 15.2094C20.5362 14.3754 21.2198 13.3066 22.2903 12.1346C23.0068 11.3533 24.0729 10.3328 25.5588 9.34961C25.5786 9.79074 25.7478 10.2187 26.0885 10.4974C26.3743 10.7322 26.7326 10.8595 27.0359 11.0702C27.1304 11.1361 27.2183 11.2085 27.3173 11.2634C27.4096 11.3138 27.5085 11.3468 27.6074 11.3797C28.0932 11.5421 28.5811 11.7045 29.0823 11.812C29.4648 11.8954 29.856 11.9459 30.2473 11.9656C30.4363 11.9744 30.6451 11.9964 30.8342 11.9678C31.0232 11.9393 31.1924 11.8866 31.3727 11.8471C31.421 11.8362 31.4694 11.8252 31.52 11.8186C31.5573 11.812 31.5969 11.8076 31.6343 11.8142C31.6716 11.8208 31.709 11.8405 31.7266 11.8757C31.7573 11.9327 31.7244 12.003 31.6892 12.0578C31.654 12.1149 31.6211 12.1829 31.5727 12.229C31.5353 12.2619 31.4914 12.2926 31.454 12.3278C31.3617 12.4112 31.2694 12.4946 31.1749 12.5801C30.9529 12.7799 30.7309 12.9774 30.5066 13.1727L30.5088 13.1705Z" fill="#D23C3C"/>
<path d="M43.9172 7.61123C44.8272 8.59005 45.5613 9.38452 46.0625 9.92879C47.0538 11.0042 48.2254 11.9347 49.0475 13.1462C49.1244 13.2603 49.1859 13.3108 49.3024 13.4183C49.3772 13.4885 49.4629 13.5566 49.564 13.5653C49.6365 13.5719 49.7113 13.5478 49.775 13.5105C49.8388 13.4732 49.9179 13.3898 49.9684 13.3349C50.0146 13.2844 50.0849 13.2076 50.1641 13.1067C50.5048 12.6787 50.6674 12.2815 50.8037 12.0203C51.0631 11.5177 51.4521 10.7496 51.6851 9.69177C51.9049 8.68881 51.883 7.89654 51.8742 7.69243C51.8456 6.98136 51.8148 6.1869 51.3554 5.31342C51.1818 4.98203 50.8081 4.29071 50.0256 3.79691C48.9969 3.14729 47.922 3.25263 47.2802 3.31409C46.8054 3.36017 45.3129 3.52697 44.0842 4.745C43.4666 5.35731 43.1435 6.01132 42.9808 6.42172C42.9324 6.54243 43.0401 6.70045 43.1171 6.8036C43.3369 7.09549 43.6688 7.34348 43.9172 7.61123Z" fill="#EFF4EE"/>
</g>
<defs>
<clipPath id="clip0_3519_3047">
<rect width="55" height="43" fill="white"/>
</clipPath>
</defs>
</svg>
