<svg width="58" height="58" viewBox="0 0 58 58" fill="none" xmlns="http://www.w3.org/2000/svg">
<g filter="url(#filter0_i_2825_3412)">
<rect width="58" height="58" rx="29" fill="#EFCA52"/>
<mask id="path-2-outside-1_2825_3412" maskUnits="userSpaceOnUse" x="9" y="14" width="12" height="18" fill="black">
<rect fill="white" x="9" y="14" width="12" height="18"/>
<path d="M16.648 17.656C17.5653 17.7733 18.392 17.9653 19.128 18.232L18.68 19.944C18.008 19.6773 17.3307 19.4907 16.648 19.384V22.536C17.6933 22.888 18.4187 23.2987 18.824 23.768C19.2293 24.2373 19.432 24.8507 19.432 25.608C19.432 26.5893 19.064 27.352 18.328 27.896C17.592 28.44 16.4827 28.728 15 28.76V30.36H13.352V28.664C12.328 28.536 11.384 28.2587 10.52 27.832L11.032 26.12C11.736 26.504 12.5093 26.7707 13.352 26.92V23.528C12.36 23.1867 11.6453 22.7707 11.208 22.28C10.7707 21.7787 10.552 21.1813 10.552 20.488C10.552 19.5813 10.92 18.872 11.656 18.36C12.4027 17.8373 13.5173 17.5707 15 17.56V15.96H16.648V17.656ZM15 19.272C13.432 19.2827 12.648 19.688 12.648 20.488C12.648 20.8507 12.808 21.1493 13.128 21.384C13.448 21.6187 14.0347 21.8373 14.888 22.04C14.8987 22.0507 14.9147 22.056 14.936 22.056C14.968 22.056 14.9893 22.0613 15 22.072V19.272ZM15 27.048C16.5253 27.0053 17.288 26.536 17.288 25.64C17.288 25.224 17.1333 24.8987 16.824 24.664C16.5147 24.4293 15.9067 24.2053 15 23.992V27.048Z"/>
</mask>
<path d="M16.648 17.656C17.5653 17.7733 18.392 17.9653 19.128 18.232L18.68 19.944C18.008 19.6773 17.3307 19.4907 16.648 19.384V22.536C17.6933 22.888 18.4187 23.2987 18.824 23.768C19.2293 24.2373 19.432 24.8507 19.432 25.608C19.432 26.5893 19.064 27.352 18.328 27.896C17.592 28.44 16.4827 28.728 15 28.76V30.36H13.352V28.664C12.328 28.536 11.384 28.2587 10.52 27.832L11.032 26.12C11.736 26.504 12.5093 26.7707 13.352 26.92V23.528C12.36 23.1867 11.6453 22.7707 11.208 22.28C10.7707 21.7787 10.552 21.1813 10.552 20.488C10.552 19.5813 10.92 18.872 11.656 18.36C12.4027 17.8373 13.5173 17.5707 15 17.56V15.96H16.648V17.656ZM15 19.272C13.432 19.2827 12.648 19.688 12.648 20.488C12.648 20.8507 12.808 21.1493 13.128 21.384C13.448 21.6187 14.0347 21.8373 14.888 22.04C14.8987 22.0507 14.9147 22.056 14.936 22.056C14.968 22.056 14.9893 22.0613 15 22.072V19.272ZM15 27.048C16.5253 27.0053 17.288 26.536 17.288 25.64C17.288 25.224 17.1333 24.8987 16.824 24.664C16.5147 24.4293 15.9067 24.2053 15 23.992V27.048Z" fill="#FED36B"/>
<path d="M16.648 17.656H15.648V18.5362L16.5211 18.6479L16.648 17.656ZM19.128 18.232L20.0954 18.4852L20.3264 17.6026L19.4686 17.2918L19.128 18.232ZM18.68 19.944L18.3112 20.8735L19.3614 21.2902L19.6474 20.1972L18.68 19.944ZM16.648 19.384L16.8024 18.396L15.648 18.2156V19.384H16.648ZM16.648 22.536H15.648V23.2544L16.3289 23.4837L16.648 22.536ZM18.328 27.896L17.7336 27.0918H17.7336L18.328 27.896ZM15 28.76L14.9784 27.7602L14 27.7813V28.76H15ZM15 30.36V31.36H16V30.36H15ZM13.352 30.36H12.352V31.36H13.352V30.36ZM13.352 28.664H14.352V27.7812L13.476 27.6717L13.352 28.664ZM10.52 27.832L9.56193 27.5455L9.31993 28.3547L10.0772 28.7286L10.52 27.832ZM11.032 26.12L11.5109 25.2421L10.4275 24.6512L10.0739 25.8335L11.032 26.12ZM13.352 26.92L13.1775 27.9047L14.352 28.1128V26.92H13.352ZM13.352 23.528H14.352V22.8145L13.6774 22.5824L13.352 23.528ZM11.208 22.28L10.4544 22.9374L10.4615 22.9454L11.208 22.28ZM11.656 18.36L12.2271 19.1809L12.2295 19.1792L11.656 18.36ZM15 17.56L15.0072 18.56L16 18.5528V17.56H15ZM15 15.96V14.96H14V15.96H15ZM16.648 15.96H17.648V14.96H16.648V15.96ZM15 19.272H16V18.2652L14.9932 18.272L15 19.272ZM13.128 21.384L12.5366 22.1904H12.5366L13.128 21.384ZM14.888 22.04L15.5951 21.3329L15.3948 21.1325L15.1191 21.0671L14.888 22.04ZM15 22.072L14.2929 22.7791L16 24.4862V22.072H15ZM15 27.048H14V28.0764L15.028 28.0476L15 27.048ZM16.824 24.664L17.4284 23.8673L17.4284 23.8673L16.824 24.664ZM15 23.992L15.229 23.0186L14 22.7294V23.992H15ZM16.648 17.656L16.5211 18.6479C17.3783 18.7576 18.1316 18.9346 18.7874 19.1722L19.128 18.232L19.4686 17.2918C18.6524 16.9961 17.7524 16.7891 16.7749 16.6641L16.648 17.656ZM19.128 18.232L18.1606 17.9788L17.7126 19.6908L18.68 19.944L19.6474 20.1972L20.0954 18.4852L19.128 18.232ZM18.68 19.944L19.0488 19.0145C18.3109 18.7217 17.5618 18.5146 16.8024 18.396L16.648 19.384L16.4936 20.372C17.0995 20.4667 17.7051 20.633 18.3112 20.8735L18.68 19.944ZM16.648 19.384H15.648V22.536H16.648H17.648V19.384H16.648ZM16.648 22.536L16.3289 23.4837C17.3187 23.817 17.8381 24.1564 18.0672 24.4216L18.824 23.768L19.5808 23.1144C18.9992 22.4409 18.068 21.959 16.9671 21.5883L16.648 22.536ZM18.824 23.768L18.0672 24.4216C18.2829 24.6714 18.432 25.0354 18.432 25.608H19.432H20.432C20.432 24.666 20.1757 23.8032 19.5808 23.1144L18.824 23.768ZM19.432 25.608H18.432C18.432 26.2988 18.1938 26.7517 17.7336 27.0918L18.328 27.896L18.9224 28.7002C19.9342 27.9523 20.432 26.8798 20.432 25.608H19.432ZM18.328 27.896L17.7336 27.0918C17.2381 27.4581 16.3718 27.7302 14.9784 27.7602L15 28.76L15.0216 29.7598C16.5936 29.7258 17.9459 29.4219 18.9224 28.7002L18.328 27.896ZM15 28.76H14V30.36H15H16V28.76H15ZM15 30.36V29.36H13.352V30.36V31.36H15V30.36ZM13.352 30.36H14.352V28.664H13.352H12.352V30.36H13.352ZM13.352 28.664L13.476 27.6717C12.555 27.5566 11.7197 27.3092 10.9628 26.9354L10.52 27.832L10.0772 28.7286C11.0483 29.2082 12.101 29.5154 13.228 29.6563L13.352 28.664ZM10.52 27.832L11.4781 28.1185L11.9901 26.4065L11.032 26.12L10.0739 25.8335L9.56193 27.5455L10.52 27.832ZM11.032 26.12L10.5531 26.9979C11.3584 27.4371 12.2355 27.7377 13.1775 27.9047L13.352 26.92L13.5265 25.9353C12.7832 25.8036 12.1136 25.5709 11.5109 25.2421L11.032 26.12ZM13.352 26.92H14.352V23.528H13.352H12.352V26.92H13.352ZM13.352 23.528L13.6774 22.5824C12.7604 22.2669 12.2292 21.9228 11.9545 21.6146L11.208 22.28L10.4615 22.9454C11.0615 23.6186 11.9596 24.1064 13.0266 24.4736L13.352 23.528ZM11.208 22.28L11.9616 21.6226C11.6903 21.3117 11.552 20.9508 11.552 20.488H10.552H9.552C9.552 21.4119 9.85104 22.2457 10.4544 22.9374L11.208 22.28ZM10.552 20.488H11.552C11.552 19.9043 11.7634 19.5035 12.2271 19.1809L11.656 18.36L11.0849 17.5391C10.0766 18.2405 9.552 19.2584 9.552 20.488H10.552ZM11.656 18.36L12.2295 19.1792C12.7354 18.8251 13.6115 18.57 15.0072 18.56L15 17.56L14.9928 16.56C13.4232 16.5713 12.0699 16.8496 11.0825 17.5408L11.656 18.36ZM15 17.56H16V15.96H15H14V17.56H15ZM15 15.96V16.96H16.648V15.96V14.96H15V15.96ZM16.648 15.96H15.648V17.656H16.648H17.648V15.96H16.648ZM15 19.272L14.9932 18.272C14.1562 18.2777 13.3787 18.3845 12.7767 18.6957C12.4616 18.8586 12.1685 19.0912 11.9567 19.4168C11.7415 19.7476 11.648 20.117 11.648 20.488H12.648H13.648C13.648 20.459 13.6525 20.4777 13.6333 20.5072C13.6175 20.5315 13.6184 20.512 13.6953 20.4723C13.8773 20.3782 14.2758 20.2769 15.0068 20.272L15 19.272ZM12.648 20.488H11.648C11.648 21.2025 11.9878 21.788 12.5366 22.1904L13.128 21.384L13.7194 20.5776C13.6888 20.5552 13.671 20.5378 13.6613 20.527C13.6565 20.5217 13.6535 20.5178 13.6518 20.5154C13.6502 20.5131 13.6495 20.5119 13.6495 20.5118C13.6494 20.5117 13.6496 20.512 13.6499 20.5127C13.6501 20.5133 13.6501 20.5135 13.65 20.5128C13.6498 20.5121 13.648 20.5046 13.648 20.488H12.648ZM13.128 21.384L12.5366 22.1904C13.0322 22.5538 13.7933 22.8078 14.6569 23.0129L14.888 22.04L15.1191 21.0671C14.2761 20.8668 13.8638 20.6835 13.7194 20.5776L13.128 21.384ZM14.888 22.04L14.1809 22.7471C14.4452 23.0115 14.7605 23.056 14.936 23.056V22.056V21.056C15.0688 21.056 15.3521 21.0899 15.5951 21.3329L14.888 22.04ZM14.936 22.056V23.056C14.9037 23.056 14.8291 23.0541 14.7335 23.0301C14.6439 23.0077 14.4614 22.9476 14.2929 22.7791L15 22.072L15.7071 21.3649C15.5279 21.1857 15.3294 21.1176 15.2185 21.0899C15.1016 21.0606 15.0003 21.056 14.936 21.056V22.056ZM15 22.072H16V19.272H15H14V22.072H15ZM15 27.048L15.028 28.0476C15.8576 28.0244 16.6381 27.8861 17.2401 27.5157C17.9174 27.0989 18.288 26.435 18.288 25.64H17.288H16.288C16.288 25.7185 16.2726 25.7433 16.272 25.7443C16.2714 25.7454 16.2585 25.7714 16.1919 25.8123C16.0313 25.9112 15.6677 26.0289 14.972 26.0484L15 27.048ZM17.288 25.64H18.288C18.288 24.9371 18.0069 24.3062 17.4284 23.8673L16.824 24.664L16.2196 25.4607C16.2569 25.489 16.2656 25.5064 16.2689 25.5134C16.2733 25.5226 16.288 25.5576 16.288 25.64H17.288ZM16.824 24.664L17.4284 23.8673C16.9326 23.4912 16.1328 23.2312 15.229 23.0186L15 23.992L14.771 24.9654C15.6806 25.1794 16.0967 25.3674 16.2196 25.4607L16.824 24.664ZM15 23.992H14V27.048H15H16V23.992H15Z" fill="#774306" mask="url(#path-2-outside-1_2825_3412)"/>
<mask id="path-4-outside-2_2825_3412" maskUnits="userSpaceOnUse" x="37" y="14" width="12" height="18" fill="black">
<rect fill="white" x="37" y="14" width="12" height="18"/>
<path d="M44.648 17.656C45.5653 17.7733 46.392 17.9653 47.128 18.232L46.68 19.944C46.008 19.6773 45.3307 19.4907 44.648 19.384V22.536C45.6933 22.888 46.4187 23.2987 46.824 23.768C47.2293 24.2373 47.432 24.8507 47.432 25.608C47.432 26.5893 47.064 27.352 46.328 27.896C45.592 28.44 44.4827 28.728 43 28.76V30.36H41.352V28.664C40.328 28.536 39.384 28.2587 38.52 27.832L39.032 26.12C39.736 26.504 40.5093 26.7707 41.352 26.92V23.528C40.36 23.1867 39.6453 22.7707 39.208 22.28C38.7707 21.7787 38.552 21.1813 38.552 20.488C38.552 19.5813 38.92 18.872 39.656 18.36C40.4027 17.8373 41.5173 17.5707 43 17.56V15.96H44.648V17.656ZM43 19.272C41.432 19.2827 40.648 19.688 40.648 20.488C40.648 20.8507 40.808 21.1493 41.128 21.384C41.448 21.6187 42.0347 21.8373 42.888 22.04C42.8987 22.0507 42.9147 22.056 42.936 22.056C42.968 22.056 42.9893 22.0613 43 22.072V19.272ZM43 27.048C44.5253 27.0053 45.288 26.536 45.288 25.64C45.288 25.224 45.1333 24.8987 44.824 24.664C44.5147 24.4293 43.9067 24.2053 43 23.992V27.048Z"/>
</mask>
<path d="M44.648 17.656C45.5653 17.7733 46.392 17.9653 47.128 18.232L46.68 19.944C46.008 19.6773 45.3307 19.4907 44.648 19.384V22.536C45.6933 22.888 46.4187 23.2987 46.824 23.768C47.2293 24.2373 47.432 24.8507 47.432 25.608C47.432 26.5893 47.064 27.352 46.328 27.896C45.592 28.44 44.4827 28.728 43 28.76V30.36H41.352V28.664C40.328 28.536 39.384 28.2587 38.52 27.832L39.032 26.12C39.736 26.504 40.5093 26.7707 41.352 26.92V23.528C40.36 23.1867 39.6453 22.7707 39.208 22.28C38.7707 21.7787 38.552 21.1813 38.552 20.488C38.552 19.5813 38.92 18.872 39.656 18.36C40.4027 17.8373 41.5173 17.5707 43 17.56V15.96H44.648V17.656ZM43 19.272C41.432 19.2827 40.648 19.688 40.648 20.488C40.648 20.8507 40.808 21.1493 41.128 21.384C41.448 21.6187 42.0347 21.8373 42.888 22.04C42.8987 22.0507 42.9147 22.056 42.936 22.056C42.968 22.056 42.9893 22.0613 43 22.072V19.272ZM43 27.048C44.5253 27.0053 45.288 26.536 45.288 25.64C45.288 25.224 45.1333 24.8987 44.824 24.664C44.5147 24.4293 43.9067 24.2053 43 23.992V27.048Z" fill="#FED36B"/>
<path d="M44.648 17.656H43.648V18.5362L44.5211 18.6479L44.648 17.656ZM47.128 18.232L48.0954 18.4852L48.3264 17.6026L47.4686 17.2918L47.128 18.232ZM46.68 19.944L46.3112 20.8735L47.3614 21.2902L47.6474 20.1972L46.68 19.944ZM44.648 19.384L44.8024 18.396L43.648 18.2156V19.384H44.648ZM44.648 22.536H43.648V23.2544L44.3289 23.4837L44.648 22.536ZM46.328 27.896L45.7336 27.0918H45.7336L46.328 27.896ZM43 28.76L42.9784 27.7602L42 27.7813V28.76H43ZM43 30.36V31.36H44V30.36H43ZM41.352 30.36H40.352V31.36H41.352V30.36ZM41.352 28.664H42.352V27.7812L41.476 27.6717L41.352 28.664ZM38.52 27.832L37.5619 27.5455L37.3199 28.3547L38.0772 28.7286L38.52 27.832ZM39.032 26.12L39.5109 25.2421L38.4275 24.6512L38.0739 25.8335L39.032 26.12ZM41.352 26.92L41.1775 27.9047L42.352 28.1128V26.92H41.352ZM41.352 23.528H42.352V22.8145L41.6774 22.5824L41.352 23.528ZM39.208 22.28L38.4544 22.9374L38.4615 22.9454L39.208 22.28ZM39.656 18.36L40.2271 19.1809L40.2295 19.1792L39.656 18.36ZM43 17.56L43.0072 18.56L44 18.5528V17.56H43ZM43 15.96V14.96H42V15.96H43ZM44.648 15.96H45.648V14.96H44.648V15.96ZM43 19.272H44V18.2652L42.9932 18.272L43 19.272ZM41.128 21.384L40.5366 22.1904H40.5366L41.128 21.384ZM42.888 22.04L43.5951 21.3329L43.3948 21.1325L43.1191 21.0671L42.888 22.04ZM43 22.072L42.2929 22.7791L44 24.4862V22.072H43ZM43 27.048H42V28.0764L43.028 28.0476L43 27.048ZM44.824 24.664L45.4284 23.8673L45.4284 23.8673L44.824 24.664ZM43 23.992L43.229 23.0186L42 22.7294V23.992H43ZM44.648 17.656L44.5211 18.6479C45.3783 18.7576 46.1316 18.9346 46.7874 19.1722L47.128 18.232L47.4686 17.2918C46.6524 16.9961 45.7524 16.7891 44.7749 16.6641L44.648 17.656ZM47.128 18.232L46.1606 17.9788L45.7126 19.6908L46.68 19.944L47.6474 20.1972L48.0954 18.4852L47.128 18.232ZM46.68 19.944L47.0488 19.0145C46.3109 18.7217 45.5618 18.5146 44.8024 18.396L44.648 19.384L44.4936 20.372C45.0995 20.4667 45.7051 20.633 46.3112 20.8735L46.68 19.944ZM44.648 19.384H43.648V22.536H44.648H45.648V19.384H44.648ZM44.648 22.536L44.3289 23.4837C45.3187 23.817 45.8381 24.1564 46.0672 24.4216L46.824 23.768L47.5808 23.1144C46.9992 22.4409 46.068 21.959 44.9671 21.5883L44.648 22.536ZM46.824 23.768L46.0672 24.4216C46.2829 24.6714 46.432 25.0354 46.432 25.608H47.432H48.432C48.432 24.666 48.1757 23.8032 47.5808 23.1144L46.824 23.768ZM47.432 25.608H46.432C46.432 26.2988 46.1938 26.7517 45.7336 27.0918L46.328 27.896L46.9224 28.7002C47.9342 27.9523 48.432 26.8798 48.432 25.608H47.432ZM46.328 27.896L45.7336 27.0918C45.2381 27.4581 44.3718 27.7302 42.9784 27.7602L43 28.76L43.0216 29.7598C44.5936 29.7258 45.9459 29.4219 46.9224 28.7002L46.328 27.896ZM43 28.76H42V30.36H43H44V28.76H43ZM43 30.36V29.36H41.352V30.36V31.36H43V30.36ZM41.352 30.36H42.352V28.664H41.352H40.352V30.36H41.352ZM41.352 28.664L41.476 27.6717C40.555 27.5566 39.7197 27.3092 38.9628 26.9354L38.52 27.832L38.0772 28.7286C39.0483 29.2082 40.101 29.5154 41.228 29.6563L41.352 28.664ZM38.52 27.832L39.4781 28.1185L39.9901 26.4065L39.032 26.12L38.0739 25.8335L37.5619 27.5455L38.52 27.832ZM39.032 26.12L38.5531 26.9979C39.3584 27.4371 40.2355 27.7377 41.1775 27.9047L41.352 26.92L41.5265 25.9353C40.7832 25.8036 40.1136 25.5709 39.5109 25.2421L39.032 26.12ZM41.352 26.92H42.352V23.528H41.352H40.352V26.92H41.352ZM41.352 23.528L41.6774 22.5824C40.7604 22.2669 40.2292 21.9228 39.9545 21.6146L39.208 22.28L38.4615 22.9454C39.0615 23.6186 39.9596 24.1064 41.0266 24.4736L41.352 23.528ZM39.208 22.28L39.9616 21.6226C39.6903 21.3117 39.552 20.9508 39.552 20.488H38.552H37.552C37.552 21.4119 37.851 22.2457 38.4544 22.9374L39.208 22.28ZM38.552 20.488H39.552C39.552 19.9043 39.7634 19.5035 40.2271 19.1809L39.656 18.36L39.0849 17.5391C38.0766 18.2405 37.552 19.2584 37.552 20.488H38.552ZM39.656 18.36L40.2295 19.1792C40.7354 18.8251 41.6115 18.57 43.0072 18.56L43 17.56L42.9928 16.56C41.4232 16.5713 40.0699 16.8496 39.0825 17.5408L39.656 18.36ZM43 17.56H44V15.96H43H42V17.56H43ZM43 15.96V16.96H44.648V15.96V14.96H43V15.96ZM44.648 15.96H43.648V17.656H44.648H45.648V15.96H44.648ZM43 19.272L42.9932 18.272C42.1562 18.2777 41.3787 18.3845 40.7767 18.6957C40.4616 18.8586 40.1685 19.0912 39.9567 19.4168C39.7415 19.7476 39.648 20.117 39.648 20.488H40.648H41.648C41.648 20.459 41.6525 20.4777 41.6333 20.5072C41.6175 20.5315 41.6184 20.512 41.6953 20.4723C41.8773 20.3782 42.2758 20.2769 43.0068 20.272L43 19.272ZM40.648 20.488H39.648C39.648 21.2025 39.9878 21.788 40.5366 22.1904L41.128 21.384L41.7194 20.5776C41.6888 20.5552 41.671 20.5378 41.6613 20.527C41.6565 20.5217 41.6535 20.5178 41.6518 20.5154C41.6502 20.5131 41.6495 20.5119 41.6495 20.5118C41.6494 20.5117 41.6496 20.512 41.6499 20.5127C41.6501 20.5133 41.6501 20.5135 41.65 20.5128C41.6498 20.5121 41.648 20.5046 41.648 20.488H40.648ZM41.128 21.384L40.5366 22.1904C41.0322 22.5538 41.7933 22.8078 42.6569 23.0129L42.888 22.04L43.1191 21.0671C42.2761 20.8668 41.8638 20.6835 41.7194 20.5776L41.128 21.384ZM42.888 22.04L42.1809 22.7471C42.4452 23.0115 42.7605 23.056 42.936 23.056V22.056V21.056C43.0688 21.056 43.3521 21.0899 43.5951 21.3329L42.888 22.04ZM42.936 22.056V23.056C42.9037 23.056 42.8291 23.0541 42.7335 23.0301C42.6439 23.0077 42.4614 22.9476 42.2929 22.7791L43 22.072L43.7071 21.3649C43.5279 21.1857 43.3294 21.1176 43.2185 21.0899C43.1016 21.0606 43.0003 21.056 42.936 21.056V22.056ZM43 22.072H44V19.272H43H42V22.072H43ZM43 27.048L43.028 28.0476C43.8576 28.0244 44.6381 27.8861 45.2401 27.5157C45.9174 27.0989 46.288 26.435 46.288 25.64H45.288H44.288C44.288 25.7185 44.2726 25.7433 44.272 25.7443C44.2714 25.7454 44.2585 25.7714 44.1919 25.8123C44.0313 25.9112 43.6677 26.0289 42.972 26.0484L43 27.048ZM45.288 25.64H46.288C46.288 24.9371 46.0069 24.3062 45.4284 23.8673L44.824 24.664L44.2196 25.4607C44.2569 25.489 44.2656 25.5064 44.2689 25.5134C44.2733 25.5226 44.288 25.5576 44.288 25.64H45.288ZM44.824 24.664L45.4284 23.8673C44.9326 23.4912 44.1328 23.2312 43.229 23.0186L43 23.992L42.771 24.9654C43.6806 25.1794 44.0967 25.3674 44.2196 25.4607L44.824 24.664ZM43 23.992H42V27.048H43H44V23.992H43Z" fill="#774306" mask="url(#path-4-outside-2_2825_3412)"/>
<path d="M36.9543 36.6905C37.2741 36.9993 37.2848 37.5113 36.9544 37.8087C36.0343 38.6369 34.9851 39.3122 33.8466 39.8073C32.4616 40.4095 30.9717 40.733 29.4617 40.7593C27.9517 40.7857 26.4513 40.5144 25.0462 39.9609C23.8911 39.5059 22.819 38.8675 21.8706 38.072C21.5299 37.7863 21.5228 37.2742 21.8316 36.9544V36.9544C22.1404 36.6346 22.6481 36.6286 22.992 36.9104C23.7861 37.5612 24.678 38.0854 25.6363 38.4629C26.8447 38.9389 28.135 39.1722 29.4336 39.1496C30.7322 39.1269 32.0136 38.8487 33.2046 38.3308C34.1492 37.9201 35.0222 37.3651 35.7931 36.6869C36.1269 36.3933 36.6345 36.3816 36.9543 36.6905V36.6905Z" fill="#985C0D"/>
</g>
<defs>
<filter id="filter0_i_2825_3412" x="0" y="0" width="58" height="58" filterUnits="userSpaceOnUse" color-interpolation-filters="sRGB">
<feFlood flood-opacity="0" result="BackgroundImageFix"/>
<feBlend mode="normal" in="SourceGraphic" in2="BackgroundImageFix" result="shape"/>
<feColorMatrix in="SourceAlpha" type="matrix" values="0 0 0 0 0 0 0 0 0 0 0 0 0 0 0 0 0 0 127 0" result="hardAlpha"/>
<feOffset/>
<feGaussianBlur stdDeviation="2"/>
<feComposite in2="hardAlpha" operator="arithmetic" k2="-1" k3="1"/>
<feColorMatrix type="matrix" values="0 0 0 0 0.184314 0 0 0 0 0.196078 0 0 0 0 0.192157 0 0 0 0.8 0"/>
<feBlend mode="normal" in2="shape" result="effect1_innerShadow_2825_3412"/>
</filter>
</defs>
</svg>
