<svg width="40" height="39" viewBox="0 0 40 39" fill="none" xmlns="http://www.w3.org/2000/svg">
<g clip-path="url(#clip0_3222_3073)">
<path d="M3.1533 4.73911L35.8406 4.75365C36.331 4.71001 36.8287 4.76093 37.3119 4.85185C37.8059 4.94276 38.3036 5.08096 38.725 5.35735C39.1464 5.63374 39.6913 6.08833 39.6949 6.59019C39.8185 22.3917 39.7676 33.9455 39.6586 35.502C39.546 37.1058 38.6959 38.004 38.6051 38.0804C38.4998 38.1713 38.3835 38.2622 38.2564 38.3168C38.1111 38.3786 37.9549 38.4004 37.7987 38.415C37.3337 38.4623 36.8287 38.4259 36.3601 38.4404C33.6138 38.5095 4.14141 39.2405 1.87458 38.4404C0.919173 38.1022 0.497776 37.4513 0.497776 37.4513C0.239852 36.913 0.192627 36.0911 0.192627 35.4947V6.59383C0.192627 6.29562 0.337936 5.9865 0.523206 5.75375C0.806559 5.40099 1.1444 5.07732 1.56217 4.89912C2.01263 4.70274 2.66288 4.71365 3.1533 4.74274V4.73911Z" fill="#F1F1F1"/>
<path d="M39.8183 6.9205V14.8631H0.192506V6.9205C0.14528 6.61138 0.26516 6.21861 0.432266 5.95314C0.599371 5.68766 0.831866 5.47309 1.08616 5.29125C1.72915 4.83303 2.51019 4.57482 3.29849 4.55664H36.9158C37.3372 4.55664 37.8567 4.68393 38.2199 4.89122C38.5832 5.09851 38.9029 5.37854 39.1935 5.68402C39.5168 6.0186 39.8256 6.455 39.8183 6.9205Z" fill="#A9403D"/>
<path d="M7.52344 8.75715V1.7565C7.52344 1.7565 8.06108 0.199991 9.29621 0.181808C10.5313 0.163624 11.1271 1.63649 11.1271 1.63649V8.75352C11.1271 8.75352 10.6476 9.95727 9.47421 9.99363C8.30084 10.03 7.52344 8.75352 7.52344 8.75352V8.75715Z" fill="#C1B7B8"/>
<path d="M29.3306 8.75715V1.7565C29.3306 1.7565 29.8682 0.199991 31.1033 0.181808C32.3385 0.163624 32.9342 1.63649 32.9342 1.63649V8.75352C32.9342 8.75352 32.4547 9.95727 31.2813 9.99363C30.108 10.03 29.3306 8.75352 29.3306 8.75352V8.75715Z" fill="#C1B7B8"/>
<path d="M11.1088 8.74632C11.127 8.20809 11.2977 7.61531 11.1851 7.08798C11.1778 7.05525 11.1706 7.02252 11.1778 6.99343C11.1851 6.96434 11.2105 6.93161 11.2432 6.93161C11.2687 6.93161 11.3159 6.96434 11.3304 6.98252C11.4939 7.17527 11.8426 7.65167 11.9262 8.34628C11.948 8.52448 12.0497 9.53912 11.3013 10.3501C10.5603 11.1502 9.55764 11.1356 9.32514 11.132C8.9764 11.1284 7.91564 11.0447 7.24722 10.161C6.64419 9.35729 6.77496 8.4372 6.80766 8.20445C6.88395 7.66986 7.09828 7.27346 7.24722 7.04434C7.28355 6.98979 7.33804 6.93524 7.39979 6.9207C7.42886 6.91342 7.46155 6.9207 7.47971 6.94252C7.49061 6.95706 7.49061 6.97525 7.49061 6.99343C7.49061 7.09526 7.49061 7.20072 7.49061 7.30255C7.49061 7.77896 7.51604 8.31355 7.54874 8.78996C7.7558 9.04453 7.9774 9.28455 8.22806 9.49912C8.39879 9.64459 8.58406 9.77187 8.7766 9.88097C8.85652 9.92461 8.94007 9.96825 9.02726 9.99007C9.13261 10.0192 9.24522 10.0228 9.3542 10.0046C9.60123 9.95734 9.91728 9.9137 10.1461 9.8046C10.3641 9.69914 10.5821 9.5864 10.7601 9.42275C10.9381 9.2591 11.0979 8.98634 11.1052 8.74632H11.1088Z" fill="#732D2D"/>
<path d="M32.8835 8.74632C32.9016 8.20809 33.0724 7.61531 32.9598 7.08798C32.9525 7.05525 32.9452 7.02252 32.9525 6.99343C32.9598 6.96434 32.9852 6.93161 33.0179 6.93161C33.0433 6.93161 33.0905 6.96434 33.1051 6.98252C33.2685 7.17527 33.6173 7.65167 33.7008 8.34628C33.7226 8.52448 33.8243 9.53912 33.076 10.3501C32.3349 11.1502 31.3323 11.1356 31.0998 11.132C30.7511 11.1284 29.6903 11.0447 29.0219 10.161C28.4188 9.35729 28.5496 8.4372 28.5823 8.20445C28.6586 7.66986 28.8729 7.27346 29.0219 7.04434C29.0582 6.98979 29.1127 6.93524 29.1745 6.9207C29.2035 6.91342 29.2362 6.9207 29.2544 6.94252C29.2653 6.95706 29.2653 6.97525 29.2653 6.99343C29.2653 7.09526 29.2653 7.20072 29.2653 7.30255C29.2653 7.77896 29.2907 8.31355 29.3234 8.78996C29.5305 9.04453 29.7521 9.28455 30.0027 9.49912C30.1735 9.64459 30.3587 9.77187 30.5513 9.88097C30.6312 9.92461 30.7147 9.96825 30.8019 9.99007C30.9073 10.0192 31.0199 10.0228 31.1289 10.0046C31.3759 9.95734 31.6919 9.9137 31.9208 9.8046C32.1388 9.69914 32.3567 9.5864 32.5347 9.42275C32.7127 9.2591 32.8726 8.98634 32.8798 8.74632H32.8835Z" fill="#732D2D"/>
</g>
<defs>
<clipPath id="clip0_3222_3073">
<rect width="40" height="39" fill="white"/>
</clipPath>
</defs>
</svg>
