<svg width="181" height="163" viewBox="0 0 181 163" fill="none" xmlns="http://www.w3.org/2000/svg">
<path d="M112.05 12L114.896 16.054L116.355 21.906L125.152 27.7536L126.351 36.9508L119.2 41.7742L117.682 47.4317L112.05 47.7558L108 52L112.05 48.7196L117.809 48.335L121.038 50.1977L118.694 47.6261L120.213 42.5478L128.125 37.4003L126.543 27.7536L131.605 23.5743L131.099 16.953L133 13.6726L130.15 16.5035L130.656 22.8698L126.292 26.0854L117.746 21.8412L115.67 16.2269L112.05 12Z" fill="#361B06"/>
<path d="M90.0497 123L92.8955 127.054L94.3546 132.906L103.152 138.754L104.351 147.951L97.2004 152.774L95.6818 158.432L90.0497 158.756L86 163L90.0497 159.72L95.8094 159.335L99.0381 161.198L96.6942 158.626L98.2129 153.548L106.125 148.4L104.543 138.754L109.605 134.574L109.099 127.953L111 124.673L108.15 127.504L108.656 133.87L104.292 137.085L95.7456 132.841L93.6697 127.227L90.0497 123Z" fill="#361B06"/>
<path d="M71.6339 120.833L73 119L71.1589 120.175L71.5615 125.614L68.0784 131.074H67.3275L62.5597 127.641L58 130.297L62.225 128.256L66.4907 131.728L63.4373 137.202L63.8987 139L64.1882 137.162L67.1194 132.055L68.6212 131.892L72.3893 125.724L71.6339 120.833Z" fill="#361B06"/>
<path d="M179.634 62.8334L181 61L179.159 62.1752L179.562 67.6137L176.078 73.0742H175.328L170.56 69.6415L166 72.2967L170.225 70.2556L174.491 73.7281L171.437 79.2019L171.899 81L172.188 79.1621L175.119 74.055L176.621 73.8915L180.389 67.7241L179.634 62.8334Z" fill="#361B06"/>
<path d="M86.6339 1.83344L88 0L86.1589 1.17517L86.5615 6.61365L83.0784 12.0742H82.3275L77.5597 8.64148L73 11.2967L77.225 9.25558L81.4907 12.7281L78.4373 18.2019L78.8987 20L79.1882 18.1621L82.1194 13.055L83.6212 12.8915L87.3893 6.7241L86.6339 1.83344Z" fill="#361B06"/>
<path d="M146.086 116.197L139.774 119.262L139.596 125.305L136.376 133.111L129 134.506L136.781 133.844L140.924 126.213L152.785 133.111L155.849 137.124L156.085 145.584L159.791 149L156.793 145.452L156.727 137.058L153.76 132.252L141.632 124.656L141.565 120.407L146.451 117.389L156.727 118.981L159.421 111.851L164 112.052L159.118 111.123L156.049 117.854L147.529 116.03L146.5 109.96L144.26 109L145.373 110.193L146.086 116.197Z" fill="#361B06"/>
<path d="M40.0858 106.197L33.7744 109.262L33.5962 115.305L30.3759 123.111L23 124.506L30.7812 123.844L34.9235 116.213L46.7847 123.111L49.8491 127.124L50.0851 135.584L53.7909 139L50.7933 135.452L50.7265 127.058L47.7601 122.252L35.6317 114.656L35.5649 110.407L40.451 107.389L50.7265 108.981L53.4212 101.851L58 102.052L53.1184 101.123L50.0495 107.854L41.5289 106.03L40.5 99.9604L38.2596 99L39.3731 100.193L40.0858 106.197Z" fill="#361B06"/>
<path d="M33.233 77.2465L35.0218 85.6471L25.6735 93.5823L24.7791 101.773L23.5192 106L25.4091 101.979L26.0935 94.5589L36.3867 86.0057L39.9564 87.6042L41.4263 95.6919L45 98.9919L42.0058 95.2799L40.9558 87.1922L36.9116 85.1321L33.338 76.2699L24.5147 76.5255L20 74L23.9392 77.0939L33.233 77.2465Z" fill="#361B06"/>
<path d="M89.233 43.2465L91.0218 51.6471L81.6735 59.5823L80.7791 67.773L79.5192 72L81.4091 67.979L82.0935 60.5589L92.3867 52.0057L95.9564 53.6042L97.4263 61.6919L101 64.9919L98.0058 61.2799L96.9558 53.1922L92.9116 51.1321L89.338 42.2699L80.5147 42.5255L76 40L79.9392 43.0939L89.233 43.2465Z" fill="#361B06"/>
<path d="M70.2851 34L69.3808 32.5137L69.8329 29.2786L67.4084 26.9657L62.4599 28.089L60.9868 26.2397L60.2167 22.904L56.9401 22.5091L55 24.4566L56.2371 22.3104L55 20L56.7066 21.8469L60.3509 22.2442L61.5234 25.8423L62.6438 27.2624L67.4407 26.1072L70.0168 28.3196L74.0312 26.7032L75 26.767L74.2647 27L70.6527 28.8493L69.9174 32.1507L70.2851 34Z" fill="#361B06"/>
<path d="M15.2851 78L14.3808 76.5137L14.8329 73.2786L12.4084 70.9657L7.45994 72.089L5.98683 70.2397L5.21674 66.904L1.94013 66.5091L0 68.4566L1.23711 66.3104L0 64L1.70662 65.8469L5.35088 66.2442L6.52341 69.8423L7.64377 71.2624L12.4407 70.1072L15.0168 72.3196L19.0312 70.7032L20 70.767L19.2647 71L15.6527 72.8493L14.9174 76.1507L15.2851 78Z" fill="#361B06"/>
</svg>
