<svg width="144" height="137" viewBox="0 0 144 137" fill="none" xmlns="http://www.w3.org/2000/svg">
<path d="M92.0497 0L94.8955 4.05403L96.3546 9.906L105.152 15.7536L106.351 24.9508L99.2004 29.7742L97.6818 35.4317L92.0497 35.7558L88 40L92.0497 36.7196L97.8094 36.335L101.038 38.1977L98.6942 35.6261L100.213 30.5478L108.125 25.4003L106.543 15.7536L111.605 11.5743L111.099 4.953L113 1.67261L110.15 4.50351L110.656 10.8698L106.292 14.0854L97.7456 9.84117L95.6697 4.2269L92.0497 0Z" fill="#361B06"/>
<path d="M51.6339 108.833L53 107L51.1589 108.175L51.5615 113.614L48.0784 119.074H47.3275L42.5597 115.641L38 118.297L42.225 116.256L46.4907 119.728L43.4373 125.202L43.8987 127L44.1882 125.162L47.1194 120.055L48.6212 119.892L52.3893 113.724L51.6339 108.833Z" fill="#361B06"/>
<path d="M126.086 104.197L119.774 107.262L119.596 113.305L116.376 121.111L109 122.506L116.781 121.844L120.924 114.213L132.785 121.111L135.849 125.124L136.085 133.584L139.791 137L136.793 133.452L136.727 125.058L133.76 120.252L121.632 112.656L121.565 108.407L126.451 105.389L136.727 106.981L139.421 99.8506L144 100.052L139.118 99.1226L136.049 105.854L127.529 104.03L126.5 97.9604L124.26 97L125.373 98.1929L126.086 104.197Z" fill="#361B06"/>
<path d="M13.233 65.2465L15.0218 73.6471L5.67351 81.5823L4.77913 89.773L3.5192 94L5.40908 89.979L6.09348 82.5589L16.3867 74.0057L19.9564 75.6042L21.4263 83.6919L25 86.9919L22.0058 83.2799L20.9558 75.1922L16.9116 73.1321L13.338 64.2699L4.51469 64.5255L0 62L3.93918 65.0939L13.233 65.2465Z" fill="#361B06"/>
<path d="M50.2851 22L49.3808 20.5137L49.8329 17.2786L47.4084 14.9657L42.4599 16.089L40.9868 14.2397L40.2167 10.904L36.9401 10.5091L35 12.4566L36.2371 10.3104L35 8L36.7066 9.84688L40.3509 10.2442L41.5234 13.8423L42.6438 15.2624L47.4407 14.1072L50.0168 16.3196L54.0312 14.7032L55 14.767L54.2647 15L50.6527 16.8493L49.9174 20.1507L50.2851 22Z" fill="#361B06"/>
</svg>
