<svg width="182" height="180" viewBox="0 0 182 180" fill="none" xmlns="http://www.w3.org/2000/svg">
<path d="M100.05 22L102.896 26.054L104.355 31.906L113.152 37.7536L114.351 46.9508L107.2 51.7742L105.682 57.4317L100.05 57.7558L96 62L100.05 58.7196L105.809 58.335L109.038 60.1977L106.694 57.6261L108.213 52.5478L116.125 47.4003L114.543 37.7536L119.605 33.5743L119.099 26.953L121 23.6726L118.15 26.5035L118.656 32.8698L114.292 36.0854L105.746 31.8412L103.67 26.2269L100.05 22Z" fill="#361B06"/>
<path d="M53.6339 140.833L55 139L53.1589 140.175L53.5615 145.614L50.0784 151.074H49.3275L44.5597 147.641L40 150.297L44.225 148.256L48.4907 151.728L45.4373 157.202L45.8987 159L46.1882 157.162L49.1194 152.055L50.6212 151.892L54.3893 145.724L53.6339 140.833Z" fill="#361B06"/>
<path d="M55.6339 105.833L57 104L55.1589 105.175L55.5615 110.614L52.0784 116.074H51.3275L46.5597 112.641L42 115.297L46.225 113.256L50.4907 116.728L47.4373 122.202L47.8987 124L48.1882 122.162L51.1194 117.055L52.6212 116.892L56.3893 110.724L55.6339 105.833Z" fill="#361B06"/>
<path d="M13.6339 69.8334L15 68L13.1589 69.1752L13.5615 74.6137L10.0784 80.0742H9.32751L4.55971 76.6415L0 79.2967L4.22497 77.2556L8.49065 80.7281L5.43728 86.2019L5.89868 88L6.18818 86.1621L9.11942 81.055L10.6212 80.8915L14.3893 74.7241L13.6339 69.8334Z" fill="#361B06"/>
<path d="M84.6339 108.833L86 107L84.1589 108.175L84.5615 113.614L81.0784 119.074H80.3275L75.5597 115.641L71 118.297L75.225 116.256L79.4907 119.728L76.4373 125.202L76.8987 127L77.1882 125.162L80.1194 120.055L81.6212 119.892L85.3893 113.724L84.6339 108.833Z" fill="#361B06"/>
<path d="M96.4863 10.9371L98.7487 10.6066L96.6159 10.1357L93.055 14.266L86.7308 15.6643L86.1999 15.1333L85.2558 9.33465L80.1541 7.98795L84.5849 9.53219L85.1458 15.0039L79.1161 16.7154L78.1709 18.3131L79.6752 17.2183L85.3592 15.6797L86.5367 16.626L93.5622 14.9294L96.4863 10.9371Z" fill="#361B06"/>
<path d="M79.0625 113.888L78.7321 111.626L78.2612 113.759L82.3915 117.32L83.7898 123.644L83.2588 124.175L77.4601 125.119L76.1134 130.22L77.6577 125.79L83.1294 125.229L84.8409 131.258L86.4386 132.204L85.3438 130.699L83.8052 125.015L84.7515 123.838L83.0549 116.812L79.0625 113.888Z" fill="#361B06"/>
<path d="M125.937 113.262L125.607 111L125.136 113.133L129.266 116.694L130.664 123.018L130.133 123.549L124.335 124.493L122.988 129.594L124.532 125.164L130.004 124.603L131.715 130.632L133.313 131.578L132.218 130.073L130.68 124.389L131.626 123.212L129.929 116.186L125.937 113.262Z" fill="#361B06"/>
<path d="M165.937 81.2623L165.607 78.9998L165.136 81.1326L169.266 84.6936L170.664 91.0177L170.133 91.5487L164.335 92.4927L162.988 97.5944L164.532 93.1636L170.004 92.6028L171.715 98.6324L173.313 99.5776L172.218 98.0733L170.68 92.3893L171.626 91.2118L169.929 84.1863L165.937 81.2623Z" fill="#361B06"/>
<path d="M57.9371 32.2623L57.6066 29.9998L57.1357 32.1326L61.266 35.6936L62.6643 42.0177L62.1333 42.5487L56.3347 43.4927L54.9879 48.5944L56.5322 44.1636L62.0039 43.6028L63.7154 49.6324L65.3131 50.5776L64.2183 49.0733L62.6797 43.3893L63.626 42.2118L61.9294 35.1863L57.9371 32.2623Z" fill="#361B06"/>
<path d="M139.508 21.2075L140.875 19.374L139.033 20.5492L139.436 25.9877L135.953 31.4482H135.202L130.434 28.0155L125.875 30.6707L130.099 28.6296L134.365 32.1021L131.312 37.5759L131.773 39.374L132.063 37.5362L134.994 32.429L136.496 32.2656L140.264 26.0981L139.508 21.2075Z" fill="#361B06"/>
<path d="M180.634 67.8334L182 66L180.159 67.1752L180.562 72.6137L177.078 78.0742H176.328L171.56 74.6415L167 77.2967L171.225 75.2556L175.491 78.7281L172.437 84.2019L172.899 86L173.188 84.1621L176.119 79.055L177.621 78.8915L181.389 72.7241L180.634 67.8334Z" fill="#361B06"/>
<path d="M68.6339 71.8334L70 70L68.1589 71.1752L68.5615 76.6137L65.0784 82.0742H64.3275L59.5597 78.6415L55 81.2967L59.225 79.2556L63.4907 82.7281L60.4373 88.2019L60.8987 90L61.1882 88.1621L64.1194 83.055L65.6212 82.8915L69.3893 76.7241L68.6339 71.8334Z" fill="#361B06"/>
<path d="M160.937 32.2623L160.607 29.9998L160.136 32.1326L164.266 35.6936L165.664 42.0177L165.133 42.5487L159.335 43.4927L157.988 48.5944L159.532 44.1636L165.004 43.6028L166.715 49.6324L168.313 50.5776L167.218 49.0733L165.68 43.3893L166.626 42.2118L164.929 35.1863L160.937 32.2623Z" fill="#361B06"/>
<path d="M143.086 119.197L136.774 122.262L136.596 128.305L133.376 136.111L126 137.506L133.781 136.844L137.924 129.213L149.785 136.111L152.849 140.124L153.085 148.584L156.791 152L153.793 148.452L153.727 140.058L150.76 135.252L138.632 127.656L138.565 123.407L143.451 120.389L153.727 121.981L156.421 114.851L161 115.052L156.118 114.123L153.049 120.854L144.529 119.03L143.5 112.96L141.26 112L142.373 113.193L143.086 119.197Z" fill="#361B06"/>
<path d="M17.233 101.247L19.0218 109.647L9.67351 117.582L8.77913 125.773L7.5192 130L9.40908 125.979L10.0935 118.559L20.3867 110.006L23.9564 111.604L25.4263 119.692L29 122.992L26.0058 119.28L24.9558 111.192L20.9116 109.132L17.338 100.27L8.51469 100.526L4 98L7.93918 101.094L17.233 101.247Z" fill="#361B06"/>
<path d="M112.233 13.2465L114.022 21.6471L104.674 29.5823L103.779 37.773L102.519 42L104.409 37.979L105.093 30.5589L115.387 22.0057L118.956 23.6042L120.426 31.6919L124 34.9919L121.006 31.2799L119.956 23.1922L115.912 21.1321L112.338 12.2699L103.515 12.5255L99 10L102.939 13.0939L112.233 13.2465Z" fill="#361B06"/>
<path d="M90.0834 147.695L95.8328 154.076L91.7045 165.622L95.0254 173.163L96.0477 177.453L95.6739 173.026L92.5565 166.258L97.1941 153.704L101.085 153.303L106.402 159.573L111.147 160.644L106.697 158.926L101.744 152.447L97.212 152.685L89.686 146.797L82.1726 151.43L77 151.5L81.9584 152.21L90.0834 147.695Z" fill="#361B06"/>
<path d="M29.5453 117.076L34.0994 124.358L28.0289 135.012L29.9898 143.014L30.2516 147.417L30.6523 142.992L28.7575 135.786L35.5046 124.228L39.4058 124.509L43.5533 131.606L48.04 133.485L43.9568 131.021L40.204 123.78L35.6991 123.227L29.31 116.122L21.1062 119.38L16 118.551L20.7598 120.111L29.5453 117.076Z" fill="#361B06"/>
<path d="M119.545 127.076L124.099 134.358L118.029 145.012L119.99 153.014L120.252 157.417L120.652 152.992L118.758 145.786L125.505 134.228L129.406 134.509L133.553 141.606L138.04 143.485L133.957 141.021L130.204 133.78L125.699 133.227L119.31 126.122L111.106 129.38L106 128.551L110.76 130.111L119.545 127.076Z" fill="#361B06"/>
<path d="M68.2851 45L67.3808 43.5137L67.8329 40.2786L65.4084 37.9657L60.4599 39.089L58.9868 37.2397L58.2167 33.904L54.9401 33.5091L53 35.4566L54.2371 33.3104L53 31L54.7066 32.8469L58.3509 33.2442L59.5234 36.8423L60.6438 38.2624L65.4407 37.1072L68.0168 39.3196L72.0312 37.7032L73 37.767L72.2647 38L68.6527 39.8493L67.9174 43.1507L68.2851 45Z" fill="#361B06"/>
<path d="M79.7077 73.2339L78.0173 72.8223L76.0494 70.215L72.6995 70.294L69.9948 74.5874L67.6454 74.3214L64.7422 72.5072L62.1461 74.5449L62.1513 77.2938L61.5085 74.9015L59 74.1426L61.5127 74.2418L64.3705 71.9458L67.7439 73.661L69.5403 73.8729L72.1154 69.6641L75.5013 69.4069L77.197 65.4254L77.9271 64.7854L77.5719 65.4701L76.3256 69.3319L78.14 72.1862L79.7077 73.2339Z" fill="#361B06"/>
</svg>
