<svg width="395" height="428" viewBox="0 0 395 428" fill="none" xmlns="http://www.w3.org/2000/svg">
<path fill-rule="evenodd" clip-rule="evenodd" d="M376.411 248.208C377.046 287.642 352.257 258.672 324 287C295.438 315.634 259.54 354.498 218.5 355.5C176.035 356.537 196.901 316.741 164.377 290.208C129.352 261.636 51.2624 292.234 57.3348 248.208C63.0605 206.695 140.458 164.053 170.5 134C201.431 103.057 224.661 57.2294 268.877 53.2079C314.078 49.0967 314.981 106.932 343.12 141.526C367.777 171.839 375.788 209.585 376.411 248.208Z" fill="#6B745D"/>
<path opacity="0.6" fill-rule="evenodd" clip-rule="evenodd" d="M355.849 189.943C365.566 228.166 334.762 205.697 313.804 239.782C292.62 274.233 288.215 377.555 248.514 388C207.435 398.808 196.783 312.312 159.014 294C118.342 274.28 49.6342 307.808 45.3838 263.569C41.376 221.855 106.846 162.505 129.142 126.33C152.098 89.0847 164.127 39.1337 206.221 25.0181C249.254 10.5879 263.478 66.654 298.84 93.8217C329.826 117.627 346.331 152.506 355.849 189.943Z" fill="#6E8366"/>
</svg>
