<svg width="110" height="93" viewBox="0 0 110 93" fill="none" xmlns="http://www.w3.org/2000/svg">
<path d="M50.1966 87.5567C50.1516 88.8431 50.1413 90.0361 50.0998 91.3224C50.3176 91.5956 50.6116 91.8065 50.9435 91.9241C51.3965 92.0832 51.891 92.059 52.3716 92.0348C52.8592 92.0071 53.3814 91.9691 53.7548 91.6544C54.0038 91.4434 54.277 91.1634 54.2804 90.8383C54.3115 87.7261 54.1732 84.5967 54.0211 81.488C53.9415 79.8731 53.8897 78.2755 53.7514 76.6641C53.6718 75.7443 53.6407 74.9005 53.5888 73.9807C53.4125 70.8616 53.2015 67.8152 53.2015 64.6926C53.2015 63.1469 53.1151 61.6219 53.1739 60.0762C53.1842 59.7961 53.2361 59.5299 53.3917 59.2947C53.9035 59.2567 54.2182 58.617 54.7334 58.5928C55.1103 58.572 55.4042 58.8902 55.6636 59.1633C56.0889 59.6094 56.5626 60.0071 57.064 60.3667C58.551 61.4318 60.2696 62.1545 62.0469 62.5936C63.6895 62.9982 65.3908 63.1677 67.0817 63.1469C68.1467 63.1331 69.0147 63.0881 70.0417 62.8115C71.3972 62.4484 72.7527 62.0819 74.1082 61.7188C74.3607 61.6496 74.665 61.6012 74.9105 61.5113C76.8365 60.7782 78.6727 60.2872 80.3982 59.1633C82.5041 57.794 84.5754 56.5664 86.3874 54.827C87.5285 53.7343 88.5278 52.9425 89.5652 51.7495C91.0763 50.0101 92.7361 48.4955 94.313 46.8149C95.6097 45.4317 96.9237 44.0659 98.255 42.7207C98.6699 42.3023 99.2267 41.915 99.6831 41.5415C100.516 40.8534 101.353 40.1687 102.187 39.4806C102.484 39.2351 102.781 38.9896 103.086 38.751C104.099 37.9487 105.181 37.4715 106.219 36.7038C106.416 36.5586 106.609 36.4134 106.827 36.3027C107.007 36.2128 107.197 36.1506 107.38 36.0641C107.882 35.829 108.325 35.6215 108.798 35.3345C109.03 35.1962 109.255 35.0475 109.473 34.8953C109.497 34.878 109.524 34.8607 109.542 34.8331C109.562 34.8054 109.569 34.7674 109.576 34.7328C109.59 34.6118 109.559 34.4873 109.49 34.387C109.445 34.3213 109.5 34.3697 109.5 34.2867C108.404 33.7784 107.304 33.2666 106.208 32.7583C105.721 32.5335 105.233 32.3053 104.721 32.1428C104.151 31.963 103.559 31.8627 102.979 31.7244C102.169 31.5342 101.796 31.3198 101.004 31.0708C99.6762 30.6559 98.3276 30.3066 96.9687 30.0265C94.2092 29.4559 91.3495 29.1551 88.5486 28.9926C85.7477 28.8301 82.6735 29.0133 79.7931 29.5631C78.5793 29.7948 77.4901 30.0023 76.3455 30.4899C75.2009 30.9775 74.1843 31.5134 73.1573 32.122C71.0998 33.3323 69.1668 34.7363 67.1958 36.078C66.8397 36.32 66.601 36.3823 66.2483 36.6347C65.3389 37.2813 64.5228 38.049 63.7137 38.8167C62.0158 40.4177 60.318 42.0222 58.7688 43.7685C57.5413 45.1517 56.414 46.6213 55.3939 48.1635C55.1691 48.5024 55.1726 48.8517 55.0204 49.2286C54.723 49.9479 54.4464 50.6809 54.3046 51.4452C54.1421 52.3166 54.1559 53.2122 54.1732 54.0974C54.1836 54.6541 54.194 55.2109 54.2009 55.7676C54.2078 56.11 54.2113 56.4557 54.1525 56.7946C54.0349 57.4516 53.658 58.0602 53.122 58.4579C53.0771 58.4233 53.0563 58.3611 53.0425 58.3058C52.8419 57.4793 52.9457 56.6114 52.9249 55.7607C52.8903 54.3913 52.7416 53.1223 52.7105 51.7529C52.6725 50.1519 52.6379 48.5508 52.5999 46.9498C52.5687 45.6012 52.5376 44.2457 52.7278 42.9109C52.7831 42.5098 52.8142 41.9945 53.2154 41.9496C55.9333 41.6591 58.5683 40.6114 60.7433 38.955C61.428 38.4328 62.0677 37.8554 62.7039 37.2779C64.2566 35.8705 65.4046 33.7715 67.3618 33.0246C67.552 32.952 67.6868 32.786 67.8113 32.6234C68.4165 31.8489 69.0181 31.0777 69.6233 30.3031C69.9207 29.9193 70.2215 29.5355 70.4809 29.1274C70.8993 28.4635 71.2139 27.7408 71.5217 27.0181C72.0542 25.7767 71.8744 24.1929 71.8502 22.872C71.8329 21.8173 71.7776 20.7557 71.5321 19.7287C71.4076 19.2031 71.2312 18.6878 71.0549 18.1761C70.6053 16.862 70.2388 15.6656 69.7374 14.3688C68.1502 10.2642 67.9635 5.6271 69.2222 1.40839C69.3501 0.983056 69.5887 0.457445 69.3466 0.0839844C68.126 0.253425 66.9295 0.619969 65.8195 1.15941C65.2455 1.43951 64.6957 1.76456 64.1528 2.09652C62.2717 3.24457 60.5635 4.15401 58.9348 5.63748C55.8503 8.45227 53.0252 11.5506 50.5078 14.8806C49.9649 15.5999 49.6537 16.3537 49.3494 17.2009C48.3431 19.9846 48.0077 22.9584 47.6792 25.8977C47.5789 26.7795 47.6861 27.6301 47.6827 28.5154C47.6757 31.5411 48.2844 34.5634 49.467 37.3505C49.7159 37.9383 49.9926 38.5193 50.3591 39.0414C50.9366 39.8679 52.0431 40.2379 51.9498 41.2442C51.725 43.7304 51.687 46.2375 51.8426 48.7307C51.8841 49.4119 51.9429 50.1 51.8737 50.7812C51.8149 51.4002 51.6558 52.0019 51.4968 52.6001C50.8986 49.5709 51.5141 46.566 50.6254 43.6094C49.7367 40.6528 48.6889 38.0663 47.5997 35.3414C47.4268 34.9092 47.2539 34.4804 47.0602 34.0585C46.2442 32.2949 45.6252 30.5314 44.0968 29.3315C42.0635 27.7373 40.504 25.6176 38.5641 23.9128C37.7895 23.2351 36.9596 22.623 36.1228 22.0213C34.6843 20.9839 33.5985 19.9431 32.0632 19.0509C27.7477 16.5508 22.8754 14.7665 17.8891 14.725C13.5044 14.687 9.13705 14.2063 4.8008 13.5528C3.42454 13.3453 2.05172 13.1205 0.678924 12.8785C0.578644 12.9511 0.461091 12.8681 0.350437 12.8197C0.239783 12.7713 0.0703318 12.7678 0.0357524 12.8854C0.0253786 12.9165 0.0322945 12.9476 0.0357524 12.9822C0.0876215 13.3729 0.139501 13.7672 0.284735 14.1337C0.433426 14.5037 0.675471 14.8288 0.900237 15.1607C1.73014 16.3779 2.35949 17.73 2.76061 19.1478C3.48678 21.7205 4.93912 23.9647 5.99033 26.4233C6.66463 27.9967 7.43574 29.4594 7.90602 31.1054C8.46966 33.0799 9.80098 34.6706 11.1738 36.199C11.4539 36.5102 11.6683 36.9079 11.9622 37.2087C13.1655 38.4259 14.3689 39.6466 15.5723 40.8638C16.9312 42.24 18.4458 42.9697 20.1229 43.931C21.8 44.8923 23.2385 45.7775 24.9848 46.483C26.6377 47.1469 28.0243 47.9664 29.6184 48.7549C30.1959 49.0419 30.7768 49.3254 31.3889 49.5225C32.9 50.0032 34.2693 50.5737 35.8116 50.9472C38.0385 51.4867 40.2343 51.8325 42.4854 52.2474C44.5602 52.6278 46.5346 52.6693 48.644 52.6278C49.2353 52.6174 49.8404 52.6554 50.3868 52.8733C50.7256 53.0082 51.0472 53.2087 51.2547 53.5096C51.5694 53.9695 51.5556 54.5712 51.5279 55.1279C51.4449 56.8534 51.6766 58.4959 51.5487 60.218C51.272 63.963 51.3066 67.663 50.9712 71.4011C50.8536 72.7151 50.9573 74.1294 50.8571 75.4469C50.5493 79.5031 50.3384 83.5109 50.1966 87.5774V87.5567Z" fill="#99C53C"/>
<path d="M51.3805 52.1264L47.5768 47.9768L40.488 42.0983L33.3992 36.2198L28.3852 32.0702L22.6796 28.4393L10.9226 21.1776L6.08153 18.0654L0.548828 14.4346" stroke="#B3E359" stroke-width="2"/>
<path d="M56.5674 27.4019C56.0141 29.0617 53.9163 36.9689 52.9365 40.715V41.2337L53.2823 41.9253L55.3571 41.5795C56.1063 41.2914 57.6393 40.715 57.7776 40.715C57.916 40.715 59.6795 39.5624 60.544 38.9861L63.3103 36.7384C63.6561 36.2197 64.5206 35.0094 65.2122 34.3178C65.9038 33.6262 66.9988 33.1075 67.4599 32.9346L68.6701 31.7243L70.0533 29.9953C70.2838 29.5919 70.8141 28.6467 71.0907 28.0935C71.3673 27.5402 71.667 26.8255 71.7823 26.5374L71.9552 24.4626V21.6962L71.2636 18.757L70.3991 15.9906C70.0533 15.1261 69.3617 13.3625 69.3617 13.2242C69.3617 13.0859 69.0159 11.5529 68.843 10.8036C68.6701 9.70861 68.3243 7.48399 68.3243 7.34567V4.75219C68.3243 4.47555 68.7854 2.79268 69.0159 1.98582L69.3617 1.12133L69.5346 0.256836H68.6701C67.9785 0.256836 65.5004 4.98272 64.3477 7.34567L60.544 17.8925C59.449 20.3707 57.1206 25.742 56.5674 27.4019Z" fill="#86BA3B"/>
<path d="M52.9365 41.7524L54.4926 34.1449L56.0487 28.958L59.6795 19.9672L62.4459 12.5326L65.3851 5.44379L68.4972 0.256836" stroke="#B3E359"/>
<path d="M103.596 38.1223L109.633 34.8451C109.601 34.6422 109.51 34.3545 109.301 34.1456C109.025 33.869 108.61 33.7998 108.437 33.7998H105.152C103.907 33.7998 101.982 34.4914 101.175 34.8372L91.8387 38.9868L80.7734 44.3466L65.0397 52.6457L55.0117 58.6972L56.9136 60.2532L59.6799 61.8093L64.0024 63.0196H68.4977L74.2033 61.8093L80.0818 59.2159L85.6145 55.585L90.1098 50.7438L97.1986 43.8279L103.596 38.1223Z" fill="#86BA3C"/>
<path d="M55.0117 58.5242L65.2126 52.6457L72.993 48.4961L83.021 43.1363L94.0864 38.1222L101.348 35.01L104.806 33.9727H108.437" stroke="#B3E359"/>
<path d="M50.6887 44.0006L51.3803 52.1268L47.5766 47.8044L39.6233 41.4071L28.2122 31.8977L14.8991 23.7715L0.375744 14.435C0.260479 13.9163 0.0645295 12.8789 0.202847 12.8789C0.375744 12.8789 9.02059 13.9163 11.0953 14.435C13.1701 14.9537 13.343 14.2621 18.1841 14.6079C23.0252 14.9537 21.815 15.2995 27.1748 16.8556C31.4626 18.1004 37.2604 22.7917 39.6233 24.9818L44.9831 30.3416L48.2682 37.0847L50.6887 44.0006Z" fill="#86BA3C"/>
</svg>
