<svg width="68" height="57" viewBox="0 0 68 57" fill="none" xmlns="http://www.w3.org/2000/svg">
<path d="M31.7863 46.5048C31.7963 47.5448 31.6463 48.5949 31.3363 49.5949C30.9863 50.7249 30.4263 51.8349 30.5363 53.0149C30.6163 53.8249 31.0163 54.5648 31.4863 55.2248C31.7263 55.5548 32.0063 55.8848 32.3763 56.0448C32.7763 56.2248 33.2363 56.1848 33.6763 56.1448C34.5063 56.0748 35.3263 56.2448 36.1163 55.9748C36.6163 55.8048 36.7963 55.1948 36.8763 54.6748C37.4263 50.7948 36.3463 46.8749 36.1963 42.9549C36.1563 41.8349 36.1863 40.7149 36.1163 39.5949C35.9763 37.4649 35.4563 35.3748 35.4663 33.2448C35.4863 30.5748 36.3363 27.8448 35.6063 25.2848C36.4263 27.8348 38.9563 29.7248 41.6263 29.8148C42.9417 29.8544 44.2278 29.5027 45.4942 29.1564L45.5363 29.1448C46.3463 28.9248 46.9263 28.8448 47.7363 28.6148C48.0663 27.9648 48.8163 27.6948 49.4963 27.4248C50.7763 26.9248 51.9963 26.2848 53.2063 25.6448C55.3863 24.4948 57.5963 23.3248 59.4763 21.7248C61.6463 19.8848 63.3163 17.5248 64.6363 15.0048C65.0363 14.2348 65.4063 13.4548 65.6963 12.6448C66.1623 11.3559 66.4219 9.99817 66.6797 8.6496L66.6863 8.61484C67.2163 5.83484 67.7463 3.04484 67.8463 0.224841C66.4763 -0.155159 65.1263 0.744841 63.9063 1.47484C62.6563 2.21484 61.3663 2.46485 60.0663 3.12485C59.6463 3.33485 59.2063 3.51485 58.7763 3.68485C57.3963 4.24485 56.0163 4.80485 54.6363 5.35485C53.5763 5.78485 52.5063 6.21484 51.4063 6.52484C50.6363 6.74484 49.8363 6.89485 49.1063 7.21485C48.4063 7.51485 47.7663 7.93484 47.1363 8.36484C46.2263 8.97484 45.5563 9.23484 44.6963 9.91484C41.8263 12.2048 38.9763 14.5248 36.3563 17.1048C35.833 17.6187 35.2644 18.1868 35.2363 18.9041C35.2363 18.9403 35.2363 18.9766 35.2363 19.0129V19.0149C35.2349 18.9775 35.2349 18.9406 35.2363 18.9041C35.2363 17.801 35.2366 16.6979 35.2463 15.5949C34.3963 15.3949 33.4463 15.6248 32.7763 16.1948C32.3263 15.2548 31.8763 14.3048 31.4263 13.3648C31.2063 12.9048 30.9863 12.4448 30.7563 11.9948C30.4663 11.4448 30.1563 10.9048 29.7263 10.4648C29.4563 10.1848 29.1463 9.94484 28.8363 9.72484C27.5963 8.82484 26.4263 7.77485 24.9263 7.45485C24.5163 7.36485 24.0963 7.30484 23.6763 7.28484C23.1063 7.25484 22.5463 7.27485 21.9763 7.26485C20.2363 7.23485 18.4663 6.87484 16.9563 6.00484C16.4963 5.74484 16.0463 5.43484 15.5263 5.33484C15.0063 5.23484 14.3463 5.35484 14.2163 5.86484C13.6163 8.24484 14.4563 10.7148 15.2963 13.0248C16.2163 15.5548 17.2463 18.2448 19.4463 19.7948C19.8163 20.0548 20.2163 20.2748 20.6063 20.4948C22.4763 21.5248 24.4063 22.5149 26.4963 22.9549C28.5863 23.3949 30.8863 23.2248 32.6763 22.0748C33.061 22.1538 33.183 22.4467 33.3302 22.8001L33.3363 22.8148C33.4863 23.1748 33.5363 23.5748 33.5563 23.9648C33.9963 30.2748 32.4963 36.5549 32.3463 42.8749C32.3163 44.2249 31.7463 45.1648 31.7663 46.5048H31.7863Z" fill="#9CCB5B"/>
<path d="M43.6265 10.6348C42.8265 11.0348 37.6265 16.1348 35.1265 18.6348C35.4598 18.9681 34.988 21.7553 36.1265 22.1348C37.6265 22.6348 39.1265 23.6348 40.1265 23.6348C41.1265 23.6348 47.1265 20.6348 48.1265 20.1348C49.1265 19.6348 55.9432 16.1472 58.6265 14.1348C60.6265 12.6348 63.2931 9.80143 64.1265 9.13477L67.6265 1.13477V0.134766H66.6265C66.2265 0.134766 65.1265 0.801432 64.6265 1.13477C63.2931 1.80143 60.5265 3.13477 60.1265 3.13477C59.6265 3.13477 55.1265 5.63477 54.1265 5.63477C53.1265 5.63477 49.1265 7.13477 48.1265 7.63477C47.1265 8.13477 44.6265 10.1348 43.6265 10.6348Z" fill="#85BA36"/>
<path d="M32.6265 16.1343C32.6322 16.1718 32.638 16.2091 32.6437 16.2461M32.6437 16.2461C33.6265 22.6229 33.6265 21.643 33.6265 23.1343C33.6265 24.6343 33.6265 27.1343 33.6265 28.1343C33.6265 28.9343 33.2931 32.4677 33.1265 34.1343L32.6265 38.1343C32.6265 39.9677 32.5265 43.7343 32.1265 44.1343C31.6265 44.6343 32.1265 45.6343 31.6265 48.1343C31.1265 50.6343 30.6265 50.6343 30.6265 52.1343C30.6265 53.3343 30.6265 53.6343 30.6265 53.6343C31.1265 54.6343 32.3265 56.5343 33.1265 56.1343C33.9265 55.7343 35.1265 55.9677 35.6265 56.1343C35.7931 56.301 36.2265 56.4343 36.6265 55.6343C37.0265 54.8343 37.1265 53.6343 37.1265 53.1343C36.9598 51.801 36.6265 49.0343 36.6265 48.6343C36.6265 48.1343 36.1265 45.6343 36.1265 44.6343C36.1265 43.8343 36.1265 42.301 36.1265 41.6343V39.1343L35.6265 35.6343V32.1343C35.6265 31.4677 35.6265 30.0343 35.6265 29.6343C35.6265 29.2343 35.6265 26.801 35.6265 25.6343L35.1265 18.6343C35.2931 17.6343 35.5265 15.6343 35.1265 15.6343C34.6265 15.6343 34.6265 15.1343 33.6265 15.6343C32.8265 16.0347 32.6379 16.209 32.6437 16.2461Z" stroke="#A3C789" stroke-width="0.8"/>
<path d="M35.6265 22.1348L39.6265 23.1348C40.4598 23.3014 42.6265 23.3348 44.6265 22.1348C46.6265 20.9348 50.1265 19.3014 51.6265 18.6348L56.6265 15.6348L63.6265 9.63477L65.1265 7.13477L67.6265 0.134766" stroke="#A3C789" stroke-width="0.8"/>
<path d="M39.1265 29.1348L36.1265 26.6348C36.7931 26.6348 38.2265 26.7348 38.6265 27.1348C39.1265 27.6348 41.1265 27.6348 43.1265 27.6348C45.1265 27.6348 45.1265 27.6348 46.6265 27.1348C47.8265 26.7348 49.4598 25.9681 50.1265 25.6348L56.1265 22.1348L59.6265 19.6348C60.2931 18.8014 61.8265 16.8348 62.6265 15.6348L64.6265 12.6348L66.1265 8.13477L67.6265 1.63477L67.1265 6.63477L66.6265 10.1348L65.6265 12.6348L63.6265 16.6348L62.1265 19.1348L59.1265 22.1348L55.1265 24.6348L51.1265 26.6348L49.1265 27.6348L47.6265 28.6348C46.4265 29.4348 43.4598 29.6348 42.1265 29.6348L39.1265 29.1348Z" fill="#A8CF52"/>
<path d="M29.6264 10.6348C30.4264 11.4348 30.6264 11.9681 30.6264 12.1348L32.6264 15.6348H30.6264H28.1264L24.1265 14.6348L21.6265 12.6348L19.6265 11.1348L17.6265 9.13477C17.2931 8.80143 16.9265 7.53477 16.1265 7.13477C15.1265 6.63477 15.6264 6.63477 14.6264 6.63477C13.8264 6.63477 13.9598 5.9681 14.1264 5.63477C14.2931 5.4681 14.7264 5.13477 15.1264 5.13477C15.5264 5.13477 15.9598 5.4681 16.1264 5.63477L18.6264 6.63477C19.2931 6.80143 20.7264 7.13477 21.1264 7.13477H23.1264C23.5264 7.13477 24.9598 7.4681 25.6264 7.63477C26.2931 7.9681 27.7264 8.73477 28.1264 9.13477L29.6264 10.6348Z" fill="#8ABD34"/>
<path d="M32.1265 15.6348H28.1265L24.1265 14.6348L21.1265 12.6348L18.1265 9.63477L16.1265 7.13477L14.1265 6.63477" stroke="#A3C789" stroke-width="0.8"/>
</svg>
