<svg width="124" height="80" viewBox="0 0 124 80" fill="none" xmlns="http://www.w3.org/2000/svg">
<path d="M54.5108 39.643C55.3622 39.655 56.1837 39.6669 57.0051 39.8708C57.5207 40.3685 58.0424 40.8841 58.3242 41.5436C58.588 42.1672 58.606 42.8627 58.6239 43.5342C58.7079 47.1977 58.2522 50.5433 58.2342 54.2068C58.2222 57.0008 57.9104 59.633 57.9044 62.433C57.9044 65.4669 57.5987 68.3509 57.6646 71.3848C57.7126 73.6752 56.8012 75.9896 57.3289 78.214C57.3888 78.4778 57.4728 78.7416 57.6286 78.9635C57.8985 79.3592 58.3661 79.581 58.8338 79.671C59.3015 79.7609 59.7871 79.7189 60.2608 79.683C60.4527 79.665 60.6505 79.647 60.8124 79.5451C60.9203 79.4731 61.0043 79.3592 61.0702 79.2453C61.4659 78.5738 61.4719 77.7523 61.4659 76.9729C61.4599 75.5519 61.5199 74.1788 61.454 72.7578C61.328 69.9338 61.1482 67.1098 60.9683 64.2857C60.8304 62.1093 60.6385 59.9568 60.6265 57.7743C60.6145 54.5186 60.5966 51.2628 60.5846 48.0131C60.5846 47.7073 60.5846 47.3955 60.6685 47.0958C60.7524 46.796 60.8244 46.712 61.0702 46.5262C61.5379 46.1664 62.1075 45.7827 62.6771 45.9446C63.0248 46.0405 63.2887 46.3223 63.5525 46.5681C64.3859 47.3176 65.4352 47.7793 66.4664 48.223C68.3071 49.0204 70.1718 49.8178 72.1444 50.1956C75.3642 50.8191 78.6379 50.7232 81.8156 49.9138C84.5677 49.2183 87.1279 47.9292 89.6401 46.6101C90.1318 46.3523 90.6295 46.0885 91.0791 45.7647C91.3669 45.5548 91.6368 45.321 91.9305 45.1231C92.3562 44.8413 92.8239 44.6375 93.2616 44.3797C93.7233 44.1038 94.0351 43.9 94.4608 43.5762C97.8544 41.022 100.96 38.0901 103.7 34.8463C104.905 33.4193 106.398 32.2561 107.658 30.8831C110.47 27.8252 113.641 25.1271 116.957 22.6209C118.48 21.4697 119.829 20.5703 121.556 19.7489C122.257 19.4131 122.917 18.9934 123.51 18.4898C123.564 18.4418 123.618 18.3938 123.654 18.3339C123.714 18.2259 123.702 18.094 123.66 17.9801C123.546 17.6623 123.229 17.4585 122.905 17.3626C122.581 17.2666 122.239 17.2546 121.903 17.1887C121.4 17.0867 120.932 16.8649 120.453 16.679C120.087 16.5411 119.709 16.4272 119.337 16.3133C117.383 15.7197 115.422 15.1261 113.467 14.5385C112.148 14.1428 110.841 14.0529 109.522 13.6332C104.911 12.1642 100.163 12.3501 95.3302 12.5839C94.5387 12.6199 93.7473 12.6199 92.9558 12.6918C92.0385 12.7758 91.1391 13.0216 90.2517 13.2794C87.1039 14.1968 83.9801 14.9402 81.0722 16.4512C80.0229 16.9968 79.0696 17.6983 78.1162 18.3938C76.8571 19.3112 75.598 20.2345 74.3869 21.2059C73.6134 21.8234 72.8639 22.465 72.0725 23.0646C71.413 23.5682 70.7294 24.0419 70.0999 24.5815C68.7868 25.6967 67.3838 26.722 66.4904 28.197C66.2806 28.5447 66.1307 28.9285 65.9628 29.3002C65.2373 30.9191 64.2 32.3821 63.3306 33.929C62.4612 35.4759 62.0415 37.1967 61.7597 38.9475C61.5619 40.1886 61.4959 41.4477 61.5619 42.7008C61.5859 43.1505 61.6158 43.6422 61.346 44.0019C61.2441 44.1398 61.1002 44.2477 60.9563 44.3437C60.8424 44.4156 60.7165 44.4876 60.5846 44.4876C60.4527 44.4876 60.3208 44.4156 60.3088 44.2777C60.1769 43.1505 60.4107 42.0233 60.5066 40.8961C60.7225 38.3359 60.2008 35.7757 60.1109 33.2095C60.0689 31.9144 60.1109 30.5413 59.4753 29.4141C59.4574 29.3782 59.4274 29.3362 59.3914 29.3242C59.3135 29.3002 59.2535 29.3841 59.2235 29.4561C59.0377 29.8818 58.9957 30.3495 58.9657 30.8112C58.8877 31.9923 58.8758 33.1855 58.9357 34.3667C58.48 33.3054 58.2282 32.2621 58.1862 31.1049C58.0783 28.2509 56.5734 25.6787 55.4462 23.0526C55.1224 22.2971 54.8286 21.5296 54.3729 20.8461C53.9832 20.2585 53.4855 19.7549 53.0838 19.1793C52.6941 18.6157 52.3943 17.9981 52.0106 17.4285C51.5669 16.775 51.0153 16.2114 50.4637 15.6477C49.3305 14.4906 48.0714 13.5792 46.9441 12.416C45.709 11.1389 44.4679 9.86779 43.1428 8.68062C40.2768 6.12641 37.4228 3.45227 33.7174 2.46297C30.8754 1.7015 27.9015 1.69551 24.9636 1.59958C19.1117 1.4197 13.2658 0.898061 7.46789 0.0466566C7.38395 -0.0852512 7.00621 0.0886283 7.00022 0.244519C6.99422 0.40041 7.11414 0.526327 7.21007 0.652239C7.52785 1.06595 7.62977 1.59957 7.79765 2.09123C8.21735 3.32037 9.05078 4.35165 9.66235 5.49085C10.4178 6.91186 10.8195 8.51274 11.7369 9.83182C14.6089 13.9509 15.4243 19.2093 18.6201 23.0825C19.7533 24.4496 20.6586 25.5828 21.9177 26.8299C24.2261 29.1203 26.9182 31.027 29.8502 32.436C30.6896 32.8377 31.2532 33.3534 32.1166 33.7131C34.383 34.6605 36.6194 35.6678 38.8618 36.675C39.6053 37.0108 40.3548 37.3466 41.0983 37.6823C41.5479 37.8862 41.7578 37.9282 42.2375 38.0361C42.897 38.18 43.5625 38.3239 44.2221 38.4738C44.8636 38.6117 45.5052 38.7556 46.1467 38.8935C46.7583 39.0254 47.3698 39.1633 47.9874 39.2532C48.4851 39.3252 48.9887 39.3732 49.4924 39.4151C51.375 39.583 53.2637 39.7509 55.1464 39.655" fill="#96C636"/>
<path d="M62.1608 36.5741C61.6811 37.5334 61.761 41.5706 61.861 43.4692H62.7603L71.4542 40.1715L81.6471 34.7753L94.2382 28.4797C98.2354 26.3812 106.47 21.9443 107.429 20.985C108.628 19.7858 123.018 18.2868 123.618 18.2868C124.097 18.2868 123.618 17.6873 123.318 17.3875C123.118 17.2875 122.598 17.0877 122.119 17.0877C121.639 17.0877 120.52 16.688 120.02 16.4881L116.423 15.2889L111.626 14.0898C110.027 13.6901 106.709 12.8906 106.23 12.8906C105.75 12.8906 102.432 12.6908 100.834 12.5908H96.6365C95.4374 12.6908 92.9192 12.8906 92.4395 12.8906C91.8399 12.8906 90.0412 13.4902 89.7414 13.4902C89.4416 13.4902 85.8441 14.6894 83.4458 15.5887C81.5272 16.3082 79.4486 17.4874 78.6492 17.987L74.4521 20.985C73.5528 21.8843 71.5742 23.803 70.8547 24.2826C69.9553 24.8822 67.8568 26.0814 66.9574 27.2805C66.2379 28.2399 65.8582 29.2792 65.7582 29.6789L64.2593 32.377L62.7603 35.3749L62.1608 36.5741Z" fill="#84BB3B"/>
<path d="M61.5615 43.4685C63.2603 42.9689 66.8378 41.9096 67.5573 41.6698C68.2768 41.43 71.6544 39.971 73.2533 39.2715L84.0457 33.5754L96.3371 27.5796L105.93 22.1834C106.03 21.9835 106.47 21.4639 107.429 20.9842C108.389 20.5046 110.827 19.9849 111.926 19.7851C113.325 19.4853 116.363 18.8857 117.322 18.8857C118.282 18.8857 121.719 18.486 123.318 18.2861H123.618H123.918" stroke="#A7D64C"/>
<path d="M56.7646 26.3816C57.2442 26.6214 58.3634 31.8777 58.8631 34.4759L53.1671 32.3774C52.2677 31.478 50.1692 29.5593 48.97 29.0797C47.7709 28.6 40.8757 23.2837 37.578 20.6855L21.989 11.392L8.19868 2.9979L7.29932 0.599581V0L11.1966 0.599581L21.989 1.49895L30.9827 2.09853C34.5801 2.33836 38.4774 4.79665 39.9764 5.99581C41.875 7.69462 45.7323 11.1522 45.9721 11.392C46.2719 11.6918 49.5696 15.5891 52.2677 17.9874C54.9658 20.3857 56.165 26.0818 56.7646 26.3816Z" fill="#84BB3B"/>
<path d="M58.8637 34.4761L53.1677 32.3775L41.4759 23.9834L28.8847 15.5893L18.0923 9.29366L8.79883 3.29785" stroke="#A7D64C"/>
</svg>
