<svg width="26" height="42" viewBox="0 0 26 42" fill="none" xmlns="http://www.w3.org/2000/svg">
<path d="M18.1234 4.59574C17.6308 5.44674 17.1202 6.35148 17.1291 7.33685C17.1291 8.15202 17.5143 8.9224 17.9353 9.62111C18.9834 11.35 20.3629 12.8549 21.8499 14.2255C22.6293 14.9511 23.4623 15.5423 24.5194 15.6766C24.9046 15.1302 24.9941 14.4315 25.0568 13.7686C25.1823 12.4966 25.3077 11.2156 25.1823 9.9436C25.0568 8.67158 24.6806 7.3906 23.9013 6.37836C23.3011 5.60798 22.5038 5.02572 21.7156 4.45241C21.1691 4.05827 20.5331 3.69099 19.8613 3.5835C19.4313 2.62501 18.428 2.07858 17.4695 1.63068C16.9231 1.3709 16.3677 1.12008 15.8123 0.87822C15.4361 0.70802 15.0598 0.484073 14.6478 0.439284C13.8953 0.358663 14.0386 0.421368 13.331 0.466157C13.116 0.484073 12.4621 0.779683 12.256 0.842388C11.9335 0.949883 11.5573 1.12008 11.1811 1.3082C10.5451 1.63068 9.99865 1.99795 9.55971 2.55334C8.86099 3.43122 8.37727 3.91494 7.9025 4.93614C7.65168 5.49153 7.23066 6.56647 7.19483 7.17561C7.04254 9.91672 6.80964 12.6041 7.27545 15.3094C7.62481 17.3428 8.00104 19.4389 9.05807 21.2126C9.29097 21.5978 9.48805 21.9113 9.64033 22.3234C10.1241 23.6223 10.5451 24.9391 10.9123 26.2649C11.0736 26.8471 11.2169 27.4294 11.2886 28.0206C11.5215 29.9107 11.0288 31.8098 10.7063 33.682C10.4197 35.375 10.2674 37.1039 10.2584 38.8238C10.2584 39.4598 10.9123 39.8719 11.4677 40.1854C11.6111 40.266 11.7544 40.3377 11.9156 40.3735C12.0858 40.4093 12.265 40.4093 12.4352 40.3735C12.9368 40.3019 13.3937 40.06 13.8147 39.7913C13.967 39.6927 14.1193 39.5942 14.2447 39.4509C14.379 39.2986 14.4686 39.1105 14.4955 38.9134C14.9613 35.6885 14.3253 32.401 14.2268 29.1493C14.173 27.2771 13.8595 25.5124 13.0533 23.8194C12.2471 22.1263 11.2438 20.5408 10.4645 18.8298C10.2943 18.4536 10.133 18.0684 9.89115 17.719C7.96521 14.9152 8.2429 10.705 8.65496 7.32789C8.91474 5.18696 10.6436 2.87583 12.6771 2.18607C13.1877 2.01587 13.3399 1.96212 13.8774 1.87254C15.0598 1.69339 16.9679 2.82208 17.8905 3.69995C18.1055 3.90598 18.0518 4.2643 18.0966 4.55991L18.1234 4.58678V4.59574Z" fill="#88B733" stroke="#ACC38F" stroke-width="0.8" stroke-miterlimit="10"/>
<path d="M19.9062 4.81922C19.9957 4.81922 20.2645 4.89089 20.8736 5.32087C21.6977 5.91209 21.8232 6.17186 22.3069 6.55705C22.3875 6.61976 22.3965 6.53914 22.3696 6.46747C22.2442 6.05541 21.8052 5.72397 21.3573 5.37461C21.1155 5.1865 20.9274 4.98942 20.7213 4.86401C20.6138 4.80131 20.4974 4.74756 20.4347 4.71173C20.4168 4.70277 20.4884 4.66694 20.5691 4.68486C20.9901 4.76548 21.5096 5.22233 21.9754 5.49107C22.2711 5.66127 22.5667 5.91209 22.8623 6.21665C23.122 6.48539 23.2922 6.71829 23.4714 6.94224C23.7133 7.22889 24.0716 7.73949 24.197 8.07989C24.3045 8.35759 24.3851 8.84131 24.4836 9.20859C24.6001 9.66544 24.6538 10.176 24.6897 10.615C24.7076 10.83 24.7345 11.2062 24.7076 11.5376C24.6986 11.7078 24.4389 10.7404 24.1343 9.95209C23.7312 8.91298 23.3191 8.60841 23.131 8.27697C22.8802 7.84699 22.7189 7.54242 22.4592 7.21098C22.3427 7.05869 22.1725 6.79892 22.1098 6.68246C22.0023 6.48539 22.9787 7.28264 23.5072 7.76637C23.6774 7.91865 23.7312 8.07989 23.7581 8.13364C24.0895 8.74278 22.6294 6.62872 22.3875 6.45852C21.9486 6.14499 21.1782 5.43732 20.8915 5.16858C20.7034 4.99838 20.2824 4.66694 19.9868 4.44299C19.7987 4.29967 19.6374 4.25488 19.6016 4.228C19.4135 4.0578 20.3093 4.55049 20.9632 4.92672C21.2678 5.09692 21.5365 5.36565 21.7784 5.61648C22.3338 6.35998 22.9966 7.37222 23.0773 7.51555C23.1131 7.58721 23.14 7.64096 23.1937 7.74845" stroke="#9CCB5B" stroke-linecap="round"/>
<path d="M23.2651 8.67188C23.2741 8.78833 23.3278 9.14664 23.507 9.63037C23.6414 9.97973 23.7041 10.2395 23.8116 10.6695C23.9011 11.0188 23.9639 11.2965 24.0086 11.5832C24.0445 11.843 24.1072 12.2013 24.152 12.5506C24.2057 12.9896 24.2236 13.4375 24.2505 13.7779C24.2774 14.1631 24.2774 14.6289 24.2863 14.7632C24.2953 15.023 24.3849 14.1362 24.4207 13.8943C24.4565 13.6525 24.4745 13.4285 24.5013 13.1956C24.5282 12.9269 24.5551 12.694 24.5819 12.4521C24.5819 12.3894 24.5909 12.3356 24.5909 12.2461C24.5909 12.1565 24.5909 12.04 24.5999 11.9146" stroke="#9CCB5B" stroke-linecap="round"/>
<path d="M24.8955 11.6377V12.0856" stroke="#9CCB5B" stroke-linecap="round"/>
<path d="M20.4523 5.31299C20.3896 5.29507 20.0492 5.13383 19.7804 4.96363C19.5834 4.83822 19.3863 4.70385 19.1534 4.61427C19.0996 4.59636 19.0459 4.57844 19.0459 4.57844C19.0638 4.26492 20.2552 5.098 20.7837 5.3309C21.3839 5.58172 21.5541 5.85046 21.6885 6.00274C21.796 6.1192 21.1868 5.6713 20.9181 5.5011C20.8106 5.42944 20.6583 5.41152 20.5867 5.42944C20.0581 5.58172 21.4108 6.22669 21.9841 6.83583C22.2618 7.13144 22.7186 7.77641 23.1128 8.34075C23.4621 8.83344 23.7488 9.29924 23.8921 9.67548C23.9638 9.89942 24.0444 10.1771 24.1429 10.4727" stroke="#9CCB5B" stroke-linecap="round"/>
<path d="M18.7773 4.53308C18.7773 4.4435 18.7953 4.17476 18.858 4.04935C18.9117 3.9329 19.064 3.89707 19.1984 3.87019C19.2521 3.86123 19.3417 3.87019 19.3506 3.87019C19.1894 3.88811 19.0819 3.95977 18.9744 4.01352C18.9296 4.04039 18.9117 4.04935 18.8848 4.07622" stroke="#9CCB5B" stroke-linecap="round"/>
<path d="M19.7449 3.80715L19.5747 3.78027" stroke="#9CCB5B" stroke-linecap="round"/>
<path d="M8.37695 17.1904C8.37695 17.3517 8.40383 17.7996 8.78902 18.9014C8.89651 19.2149 9.31753 20.1824 9.93562 21.6067C10.2044 22.2158 10.4552 22.8339 10.912 23.9895C11.4674 25.369 11.5749 26.3006 11.6555 26.7216C11.8257 27.6353 11.9064 28.3251 11.9332 29.1223C11.9601 29.839 11.9691 31.2006 11.9511 31.9888C11.9243 33.4221 11.351 34.3089 11.1897 34.73C11.0643 35.0614 11.0106 35.4914 10.9927 35.8945C10.9927 35.993 10.9747 36.0916 10.9658 36.5215C10.9658 36.9515 10.9568 37.7219 10.9389 38.5818" stroke="#9DB658" stroke-linecap="round"/>
<path d="M11.8974 31.6133C11.8974 31.6133 11.8974 31.7924 11.8795 32.1328C11.8436 32.9301 11.5212 33.5213 11.4853 33.79C11.4674 33.9244 11.4853 34.1394 11.4853 34.0767C11.4853 33.6736 11.4943 33.2794 11.5391 33.0913C11.7093 32.3389 11.7809 32.1418 11.8347 31.9985C11.8526 31.9626 11.8616 31.9268 11.8705 32.3568C11.8795 32.7868 11.8884 33.6736 11.8974 34.1663C11.8974 34.7037 11.8078 35.0352 11.6914 35.4741C11.6107 35.7697 11.4943 35.9847 11.4674 36.4147C11.4495 36.6655 11.4674 37.1134 11.4674 37.5792C11.4674 38.5288 11.4495 39.0483 11.4226 39.1379C11.4137 39.1916 11.4047 39.2544 11.3778 39.2991C11.3599 39.3439 11.3241 39.3618 11.2882 39.3618C11.118 39.3618 11.0553 39.1916 11.0464 39.1469C11.0464 39.1289 11.1001 39.1289 11.1449 39.1469C11.2255 39.1648 11.5212 39.4514 11.9243 39.8097C12.0497 39.9262 12.0676 39.8456 12.0586 39.756C12.0586 39.6664 12.0228 39.55 12.0138 38.8871C12.0049 38.2242 12.0049 37.0149 11.987 35.7608" stroke="#9DB658" stroke-linecap="round"/>
<path d="M18.7417 4.33594C18.7954 4.36281 19.6017 5.16006 20.1123 5.69754C20.4706 6.07377 20.8558 6.44104 21.0797 6.65603C21.2947 6.87998 21.4739 7.10392 21.6441 7.30995C21.8143 7.52494 21.9665 7.71306 22.1457 7.95492C22.3249 8.18783 22.6115 8.58197 22.7817 8.86863C22.9161 9.10153 23.1848 9.43297 23.3819 9.78233C23.6596 10.275 23.6864 10.9021 23.785 11.3141C23.8566 11.6187 23.9104 11.977 23.9641 12.2816C24.0358 12.6757 24.1075 12.9893 24.1612 13.2759C24.197 13.5446 24.2239 14.0911 24.2508 14.53C24.2508 14.6196 24.2508 14.745 24.2508 14.8704" stroke="#9FCD49" stroke-linecap="round"/>
<path d="M18.6698 4.88281C18.6429 4.93656 18.4996 5.0978 18.3652 5.268C18.195 5.48299 18.1233 5.93088 18.0158 6.25337C17.9352 6.49523 17.8994 6.70126 17.8725 6.88938C17.8098 7.29248 17.8994 7.91058 17.989 8.11661C18.0875 8.32264 18.1233 8.51075 18.1771 8.71679C18.2487 8.96761 18.3562 9.18259 18.5264 9.4782C18.7504 9.87235 19.0818 10.1948 19.2879 10.4367C19.476 10.6606 19.6551 10.9473 19.7716 11.1265C19.9328 11.3773 20.4166 11.8341 20.6942 12.1387C20.8734 12.3358 21.0167 12.5776 21.1869 12.7568C21.4109 12.9897 21.6796 13.142 21.8677 13.2674C22.0648 13.4018 22.244 13.554 22.4321 13.6795C22.6829 13.8497 22.8621 13.9213 23.0591 14.0199C23.3368 14.1632 23.516 14.2975 23.6593 14.4498C23.722 14.5215 23.7847 14.5932 23.7937 14.6469C23.8474 14.844 23.3906 14.4319 23.2114 14.3155C23.0143 14.2259 22.8262 14.1273 22.6381 14.0019C22.5933 13.9661 22.5664 13.9303 22.5306 13.8944" stroke="#9FCD49" stroke-linecap="round"/>
<path d="M20.2107 6.50391C20.2107 6.50391 20.2107 6.70994 20.2017 7.06825C20.1659 7.37282 20.0494 7.82967 19.9151 8.77921C19.8703 9.42418 19.8613 10.4006 19.8613 11.4128" stroke="#9FCD49" stroke-linecap="round"/>
<path d="M22.1007 7.8916C22.1007 8.28575 22.0739 9.28007 21.9664 10.4625C21.9216 11.4389 21.9305 12.702 21.9664 12.8632C21.9753 12.9528 21.9932 13.0513 22.0022 13.1588" stroke="#9FCD49" stroke-linecap="round"/>
</svg>
